<svg width="218" height="39" viewBox="0 0 218 39" fill="none" xmlns="http://www.w3.org/2000/svg">
<g clip-path="url(#clip0_936_11515)">
<path d="M38.754 39H0V35.0073H0.850179L1.70036 34.936L1.9129 34.5795L2.90478 33.2249L5.45531 29.8739L6.23464 28.8757H11.9734L12.2567 29.8739L12.5401 31.0146L12.611 31.1572L12.115 31.7276C11.3423 32.8768 10.4647 33.9509 9.49366 34.936L10.8398 35.0073H12.1859L12.3984 34.5795C12.6785 34.0311 13.0365 33.5267 13.4612 33.0823C13.6908 33.6809 13.857 34.3023 13.9571 34.936L15.3741 35.0073H16.7202L16.791 34.936C16.9667 34.6328 17.1321 34.3236 17.287 34.0091L18.0663 33.1536C18.279 33.7528 18.4216 34.3749 18.4914 35.0073C19.6725 35.0058 20.8535 34.982 22.0338 34.936L21.8213 34.5795C21.3962 33.7952 21.467 33.8665 20.6168 31.2998L20.2626 30.0878L20.6877 29.4461L21.1836 28.8757H26.9223L27.3474 30.2303C27.7693 31.7935 28.1708 33.3622 28.5518 34.936L30.3939 35.0073C30.9853 34.9444 31.5757 34.8731 32.1651 34.7934L31.3858 32.9397C30.015 28.8072 28.8096 24.621 27.7725 20.3912H24.8677L24.726 20.6051L24.0884 21.7459L19.5541 27.8062L19.129 26.309C20.689 24.3184 22.2714 22.3457 23.8759 20.3912H20.9711L20.9002 20.4625V20.6051C20.8294 20.9616 20.7585 21.1755 20.4751 21.532L18.208 24.3839L18.0663 24.0274C17.7889 22.8614 17.5055 21.6969 17.2161 20.5338V20.3912H13.6737L13.7446 20.6051C14.5262 22.6707 15.2351 24.7634 15.87 26.8793L14.949 28.0914C14.2286 25.7253 13.5437 23.3484 12.8944 20.9616L12.8235 20.4625V20.3912H9.77706L9.49366 21.0329L8.99773 21.9598C7.4418 24.2008 5.81137 26.3885 4.1092 28.5192C2.79133 30.2761 1.44504 32.0113 0.0708482 33.7239H0V0H36.4868L24.5843 15.543C23.6494 16.7922 22.7283 18.0519 21.8213 19.3218H24.0176L27.2057 15.1865L29.4729 12.192L38.754 0V39ZM15.9409 31.2285L15.6575 30.2303L16.5785 29.0183L16.7202 29.2322L17.2161 30.6581L17.287 30.8007L17.1453 31.0146L16.2951 32.1554L15.9409 31.2285ZM7.65161 27.0219C8.35521 26.115 9.0637 25.2118 9.77706 24.3126C10.0087 23.9926 10.2216 23.6593 10.4147 23.3144V23.5996L10.4855 24.0987C10.715 25.0882 10.9988 26.0641 11.3357 27.0219C10.108 27.0597 8.87936 27.0597 7.65161 27.0219ZM22.6006 27.0219C23.805 25.5247 24.7969 24.2413 25.1511 23.5996L25.2928 23.3144L25.3637 23.6709V24.17C25.6091 25.1317 25.8928 26.0831 26.2138 27.0219H26.2847H22.5297H22.6006Z" fill="#B6B7BB"/>
<path d="M24.0884 19.5357L21.1836 19.4644L36.416 0H38.754L24.0884 19.5357Z" fill="#BBBBBB"/>
<path d="M50.4439 33.5814L56.1826 16.3986H60.3627L66.0305 33.5814H62.7007L61.3545 29.3748H54.7657L53.4195 33.5814H50.4439ZM58.0955 19.0366L55.545 27.022H60.5752L58.0955 19.0366ZM66.6682 33.5814L72.1943 24.7404L67.0932 16.3986H70.6357L74.3198 22.5302L77.933 16.3986H81.192L76.1618 24.6692L81.6171 33.5814H78.0039L73.9655 26.8794L69.9272 33.5814H66.6682ZM82.3256 33.5814L88.0643 16.3986H92.2444L97.8414 33.5814H94.5824L93.1654 29.3748H86.6474L85.3012 33.5814H82.3256ZM89.9064 19.0366L87.4267 27.022H92.4569L89.9064 19.0366ZM104.785 33.5814V16.3986H109.035L113.57 28.1628L117.962 16.3986H122.142V33.5814H118.954V20.6052L113.853 33.5814H112.861L107.618 20.6052V33.5814H104.785ZM124.055 33.5814L129.794 16.3986H133.974L139.642 33.5814H136.312L134.966 29.3748H128.377L127.031 33.5814H124.055ZM131.707 19.0366L129.156 27.022H134.187L131.707 19.0366ZM141.555 33.5814V16.3986H145.31L152.536 28.8044V16.3986H155.441V33.5814H152.182L144.46 20.3913V33.5814H141.555ZM164.51 33.8666C162.242 33.8666 160.613 33.3675 159.479 32.3693C158.914 31.8381 158.46 31.1987 158.144 30.4886C157.828 29.7785 157.655 29.012 157.637 28.2341H160.684C160.825 29.3035 161.18 30.0878 161.676 30.5869C162.242 31.1573 163.163 31.4425 164.51 31.4425C165.431 31.4425 166.21 31.2286 166.848 30.7295C167.414 30.2304 167.769 29.5887 167.769 28.8044C167.769 28.0202 167.485 27.3785 166.989 27.022C166.493 26.6655 165.572 26.3803 164.155 26.1664C162.03 25.8812 160.471 25.3108 159.55 24.5979C158.629 23.8849 158.133 22.6728 158.133 21.1043C158.133 19.6783 158.7 18.5375 159.763 17.6107C160.896 16.6838 162.313 16.1847 164.085 16.1847C165.927 16.1847 167.414 16.6125 168.477 17.4681C169.54 18.3236 170.177 19.5357 170.319 21.1756H167.414C167.273 20.2487 166.918 19.607 166.352 19.2505C165.856 18.8227 165.076 18.6088 164.085 18.6088C163.163 18.6088 162.455 18.8227 161.888 19.2505C161.392 19.607 161.18 20.1774 161.18 20.8191C161.18 21.6033 161.392 22.1737 161.817 22.5302C162.313 22.8867 163.305 23.1719 164.722 23.3858C166.848 23.671 168.406 24.1701 169.327 24.9543C170.319 25.6673 170.815 26.8794 170.815 28.5192C170.815 30.0165 170.248 31.2999 169.044 32.298C167.775 33.3633 166.161 33.9216 164.51 33.8666ZM171.24 33.5814L176.979 16.3986H181.159L186.827 33.5814H183.497L182.151 29.3748H175.562L174.287 33.5814H171.24ZM178.892 19.0366L176.341 27.022H181.371L178.892 19.0366ZM188.74 33.5814V16.3986H194.478C196.462 16.3986 198.021 16.8264 199.154 17.6819C200.288 18.4662 200.855 19.7496 200.855 21.4607V21.532C200.855 23.9562 199.579 25.5247 197.029 26.1664L201.917 33.5814H198.446L193.912 26.6655H191.928V33.5814H188.74ZM191.928 24.384H194.478C196.675 24.384 197.737 23.4571 197.737 21.6033V21.532C197.737 20.6052 197.454 19.8922 196.887 19.5357C196.32 19.1079 195.541 18.894 194.478 18.894H191.928V24.384ZM206.877 31.086H208.79C210.632 31.086 212.049 30.5869 213.041 29.5174C213.962 28.5192 214.458 27.022 214.458 25.0256V24.883C214.458 20.8904 212.545 18.894 208.719 18.894H206.877V31.086ZM203.689 33.5814V16.3986H208.931C211.836 16.3986 214.033 17.1829 215.52 18.6801C217.008 20.1774 217.787 22.245 217.787 24.8117V25.0256C217.787 27.6637 217.008 29.7313 215.52 31.2999C213.962 32.7971 211.765 33.5814 208.861 33.5814H203.689Z" fill="#B6B7BB"/>
<path d="M50.6565 33.5814L56.3952 16.3986H60.5752L66.1723 33.5814H62.9132L61.4963 29.3748H54.9782L53.6321 33.5814H50.6565ZM58.2373 19.0366L55.7576 27.022H60.7878L58.2373 19.0366ZM66.8807 33.5814L72.4069 24.7404L67.235 16.3986H70.8482L74.5324 22.5302L78.1456 16.3986H81.4046L76.3744 24.6692L81.8297 33.5814H78.2165L74.1781 26.8794L70.1398 33.5814H66.8807ZM82.5382 33.5814L88.2061 16.3986H92.3861L98.054 33.5814H94.7949L93.378 29.3748H86.8599L85.5138 33.5814H82.5382ZM90.119 19.0366L87.5684 27.022H92.6695L90.119 19.0366ZM104.997 33.5814V16.3986H109.248L113.711 28.1628L118.175 16.3986H122.355V33.5814H119.167V20.6052L114.066 33.5814H113.074L107.831 20.6052V33.5814H104.997ZM124.268 33.5814L130.007 16.3986H134.187L139.854 33.5814H136.525L135.178 29.3748H128.59L127.243 33.5814H124.268ZM131.919 19.0366L129.369 27.022H134.399L131.919 19.0366ZM141.696 33.5814V16.3986H145.522L152.749 28.8044V16.3986H155.654V33.5814H152.324L144.601 20.3913V33.5814H141.696ZM164.722 33.8666C162.455 33.8666 160.755 33.3675 159.692 32.3693C159.127 31.8381 158.673 31.1987 158.357 30.4886C158.04 29.7785 157.868 29.012 157.85 28.2341H160.896C161.038 29.3035 161.321 30.0878 161.888 30.5869C162.455 31.1573 163.376 31.4425 164.722 31.4425C165.643 31.4425 166.423 31.2286 167.06 30.7295C167.627 30.2304 167.91 29.5887 167.91 28.8044C167.91 28.0202 167.698 27.3785 167.202 27.022C166.706 26.6655 165.785 26.3803 164.368 26.1664C162.242 25.8812 160.684 25.3108 159.763 24.5979C158.771 23.8849 158.346 22.6728 158.346 21.1043C158.346 19.6783 158.913 18.5375 159.975 17.6107C161.109 16.6838 162.526 16.1847 164.297 16.1847C166.139 16.1847 167.627 16.6125 168.69 17.4681C169.752 18.3236 170.39 19.5357 170.532 21.1756H167.627C167.414 20.2487 167.131 19.607 166.564 19.2505C166.068 18.8227 165.289 18.6088 164.297 18.6088C163.376 18.6088 162.597 18.8227 162.101 19.2505C161.605 19.607 161.321 20.1774 161.321 20.8191C161.321 21.6033 161.605 22.1737 162.03 22.5302C162.526 22.8867 163.447 23.1719 164.864 23.3858C166.989 23.671 168.548 24.1701 169.54 24.9543C170.532 25.6673 171.028 26.8794 171.028 28.5192C171.028 30.0165 170.461 31.2999 169.256 32.298C167.988 33.3633 166.374 33.9216 164.722 33.8666ZM171.453 33.5814L177.191 16.3986H181.372L187.039 33.5814H183.709L182.363 29.3748H175.774L174.428 33.5814H171.453ZM179.104 19.0366L176.554 27.022H181.584L179.104 19.0366ZM188.952 33.5814V16.3986H194.691C196.675 16.3986 198.233 16.8264 199.367 17.6819C200.501 18.4662 201.067 19.7496 201.067 21.4607V21.532C201.067 23.9562 199.792 25.5247 197.242 26.1664L202.059 33.5814H198.658L194.124 26.6655H192.14V33.5814H188.952ZM192.14 24.384H194.691C196.816 24.384 197.95 23.4571 197.95 21.6033V21.532C197.95 20.6052 197.667 19.8922 197.1 19.5357C196.533 19.1079 195.754 18.894 194.691 18.894H192.14V24.384ZM207.089 31.086H209.002C210.844 31.086 212.261 30.5869 213.253 29.5174C214.174 28.5192 214.67 27.022 214.67 25.0256V24.883C214.67 20.8904 212.757 18.894 208.931 18.894H207.089V31.086ZM203.901 33.5814V16.3986H209.144C212.049 16.3986 214.245 17.1829 215.733 18.6801C217.221 20.1774 218 22.245 218 24.8117V25.0256C218 27.6637 217.221 29.7313 215.733 31.2999C214.174 32.7971 211.978 33.5814 209.073 33.5814H203.901Z" fill="#B6B7BB"/>
</g>
<defs>
<clipPath id="clip0_936_11515">
<rect width="218" height="39" fill="white"/>
</clipPath>
</defs>
</svg>
