<svg width="21" height="24" viewBox="0 0 21 24" fill="none" xmlns="http://www.w3.org/2000/svg">
<g clip-path="url(#clip0_1249_17080)">
<path d="M18.3594 1.46875H2.20312C1.61882 1.46875 1.05845 1.70086 0.64528 2.11403C0.232114 2.5272 0 3.08757 0 3.67188L0 19.8281C0 20.4124 0.232114 20.9728 0.64528 21.386C1.05845 21.7991 1.61882 22.0312 2.20312 22.0312H8.50269V15.0405H5.61108V11.75H8.50269V9.24211C8.50269 6.38952 10.2009 4.81383 12.802 4.81383C14.0477 4.81383 15.3503 5.03598 15.3503 5.03598V7.83578H13.915C12.5009 7.83578 12.0598 8.71336 12.0598 9.61343V11.75H15.2167L14.7118 15.0405H12.0598V22.0312H18.3594C18.9437 22.0312 19.5041 21.7991 19.9172 21.386C20.3304 20.9728 20.5625 20.4124 20.5625 19.8281V3.67188C20.5625 3.08757 20.3304 2.5272 19.9172 2.11403C19.5041 1.70086 18.9437 1.46875 18.3594 1.46875Z" fill="white"/>
</g>
<defs>
<clipPath id="clip0_1249_17080">
<rect width="20.5625" height="23.5" fill="white"/>
</clipPath>
</defs>
</svg>
