<svg width="50" height="42" viewBox="0 0 50 42" fill="none" xmlns="http://www.w3.org/2000/svg">
<path d="M42.7753 31.845C38.2856 34.5125 26.2548 41.3861 26.2548 41.3861V32.1981C26.2548 28.1285 28.3734 24.3554 31.8476 22.2369C32.7831 21.6956 33.6697 21.1802 34.5099 20.6931C36.3552 21.7575 38.4789 22.9765 38.4789 22.9765C40.881 24.3734 44.5742 27.961 42.7753 31.845Z" fill="url(#paint0_linear_936_11071)"/>
<path d="M42.8397 9.59524C35.9661 5.61591 26.2548 0 26.2548 0V9.18546C26.2548 13.2911 28.412 17.0952 31.9378 19.2034C32.2548 19.3941 33.3244 20.0126 34.5099 20.6931C36.3552 21.7575 38.4789 22.9765 38.4789 22.9765C40.881 24.3734 44.5742 27.961 42.7753 31.845C42.8655 31.7909 42.9557 31.7367 43.0382 31.6878C43.1026 31.6491 43.167 31.6079 43.2315 31.5641C46.9067 29.1904 49.1412 25.1054 49.1412 20.7034C49.1412 16.1493 46.7494 11.9328 42.8397 9.59524ZM45.2804 14.474L45.2907 14.4766C45.2907 14.4766 45.2881 14.4792 45.2804 14.4818V14.474Z" fill="url(#paint1_linear_936_11071)"/>
<path d="M6.36591 9.54112C10.8555 6.87363 22.8863 0 22.8863 0V9.18804C22.8863 13.2576 20.7678 17.0307 17.2936 19.1493C16.3581 19.6905 15.4715 20.2059 14.6313 20.6931C12.7859 19.6286 10.6622 18.4096 10.6622 18.4096C8.26021 17.0127 4.56696 13.4251 6.36591 9.54112Z" fill="url(#paint2_linear_936_11071)"/>
<path d="M6.30147 31.7909C13.1751 35.7702 22.8863 41.3861 22.8863 41.3861V32.2006C22.8863 28.095 20.7291 24.2909 17.2034 22.1827C16.8864 21.992 15.8168 21.3735 14.6313 20.6931C12.7859 19.6286 10.6622 18.4096 10.6622 18.4096C8.26021 17.0127 4.56696 13.4251 6.36591 9.54112C6.2757 9.59525 6.1855 9.64936 6.10302 9.69833C6.03859 9.73699 5.97416 9.77823 5.90973 9.82205C2.23451 12.1957 0 16.2807 0 20.6827C0 25.2368 2.39172 29.4533 6.30147 31.7909ZM3.86078 26.9121L3.85047 26.9095C3.85047 26.9095 3.85305 26.9069 3.86078 26.9043V26.9121Z" fill="url(#paint3_linear_936_11071)"/>
<defs>
<linearGradient id="paint0_linear_936_11071" x1="10.4577" y1="34.0059" x2="23.6078" y2="3.87025" gradientUnits="userSpaceOnUse">
<stop stop-color="#CF88FF"/>
<stop offset="1" stop-color="#B569FF"/>
</linearGradient>
<linearGradient id="paint1_linear_936_11071" x1="-0.000608731" y1="20.694" x2="49.1406" y2="20.694" gradientUnits="userSpaceOnUse">
<stop stop-color="#6666FF"/>
<stop offset="1" stop-color="#1919FF"/>
</linearGradient>
<linearGradient id="paint2_linear_936_11071" x1="38.6802" y1="7.38311" x2="25.5301" y2="37.5187" gradientUnits="userSpaceOnUse">
<stop stop-color="#CF88FF"/>
<stop offset="1" stop-color="#B569FF"/>
</linearGradient>
<linearGradient id="paint3_linear_936_11071" x1="49.1393" y1="20.694" x2="-0.00188045" y2="20.694" gradientUnits="userSpaceOnUse">
<stop stop-color="#6666FF"/>
<stop offset="1" stop-color="#1919FF"/>
</linearGradient>
</defs>
</svg>
