<svg width="21" height="24" viewBox="0 0 21 24" fill="none" xmlns="http://www.w3.org/2000/svg">
<g clip-path="url(#clip0_1249_17076)">
<path d="M10.5048 6.60927C7.52353 6.60927 5.11884 9.01396 5.11884 11.9952C5.11884 14.9765 7.52353 17.3811 10.5048 17.3811C13.486 17.3811 15.8907 14.9765 15.8907 11.9952C15.8907 9.01396 13.486 6.60927 10.5048 6.60927ZM10.5048 15.4968C8.57822 15.4968 7.00322 13.9265 7.00322 11.9952C7.00322 10.064 8.57353 8.49365 10.5048 8.49365C12.436 8.49365 14.0063 10.064 14.0063 11.9952C14.0063 13.9265 12.4313 15.4968 10.5048 15.4968ZM17.3673 6.38896C17.3673 7.0874 16.8048 7.64521 16.111 7.64521C15.4126 7.64521 14.8548 7.08271 14.8548 6.38896C14.8548 5.69521 15.4173 5.13271 16.111 5.13271C16.8048 5.13271 17.3673 5.69521 17.3673 6.38896ZM20.9345 7.66396C20.8548 5.98115 20.4704 4.49053 19.2376 3.2624C18.0095 2.03428 16.5188 1.6499 14.836 1.56553C13.1016 1.46709 7.90322 1.46709 6.16884 1.56553C4.49072 1.64521 3.0001 2.02959 1.76728 3.25771C0.534472 4.48584 0.154785 5.97646 0.0704101 7.65927C-0.0280273 9.39365 -0.0280273 14.5921 0.0704101 16.3265C0.150098 18.0093 0.534472 19.4999 1.76728 20.728C3.0001 21.9561 4.48603 22.3405 6.16884 22.4249C7.90322 22.5233 13.1016 22.5233 14.836 22.4249C16.5188 22.3452 18.0095 21.9608 19.2376 20.728C20.4657 19.4999 20.8501 18.0093 20.9345 16.3265C21.0329 14.5921 21.0329 9.39834 20.9345 7.66396ZM18.6938 18.1874C18.3282 19.1061 17.6204 19.814 16.697 20.1843C15.3141 20.7327 12.0329 20.6061 10.5048 20.6061C8.97665 20.6061 5.69072 20.728 4.31259 20.1843C3.39384 19.8186 2.68603 19.1108 2.31572 18.1874C1.76728 16.8046 1.89385 13.5233 1.89385 11.9952C1.89385 10.4671 1.77197 7.18115 2.31572 5.80303C2.68135 4.88428 3.38916 4.17646 4.31259 3.80615C5.69541 3.25771 8.97665 3.38428 10.5048 3.38428C12.0329 3.38428 15.3188 3.2624 16.697 3.80615C17.6157 4.17178 18.3235 4.87959 18.6938 5.80303C19.2423 7.18584 19.1157 10.4671 19.1157 11.9952C19.1157 13.5233 19.2423 16.8093 18.6938 18.1874Z" fill="white"/>
</g>
<defs>
<clipPath id="clip0_1249_17076">
<rect width="21" height="24" fill="white"/>
</clipPath>
</defs>
</svg>
