<svg width="21" height="24" viewBox="0 0 21 24" fill="none" xmlns="http://www.w3.org/2000/svg">
<g clip-path="url(#clip0_1249_17074)">
<path d="M19.0938 1.46875H1.46416C0.656348 1.46875 0 2.13428 0 2.95127V20.5487C0 21.3657 0.656348 22.0312 1.46416 22.0312H19.0938C19.9016 22.0312 20.5625 21.3657 20.5625 20.5487V2.95127C20.5625 2.13428 19.9016 1.46875 19.0938 1.46875ZM6.21465 19.0938H3.16699V9.28066H6.21924V19.0938H6.21465ZM4.69082 7.94043C3.71318 7.94043 2.92373 7.14639 2.92373 6.17334C2.92373 5.20029 3.71318 4.40625 4.69082 4.40625C5.66387 4.40625 6.45791 5.20029 6.45791 6.17334C6.45791 7.15098 5.66846 7.94043 4.69082 7.94043ZM17.6388 19.0938H14.5911V14.3203C14.5911 13.182 14.5682 11.7179 13.0076 11.7179C11.4195 11.7179 11.1763 12.9571 11.1763 14.2377V19.0938H8.12861V9.28066H11.0523V10.6209H11.0937C11.5021 9.8498 12.4981 9.0374 13.9807 9.0374C17.065 9.0374 17.6388 11.0707 17.6388 13.7145V19.0938Z" fill="white"/>
</g>
<defs>
<clipPath id="clip0_1249_17074">
<rect width="20.5625" height="23.5" fill="white"/>
</clipPath>
</defs>
</svg>
