<svg width="190" height="42" viewBox="0 0 190 42" fill="none" xmlns="http://www.w3.org/2000/svg">
<path d="M88.4862 29.8708C87.1538 31.479 85.5817 32.7058 83.7724 33.546C81.9631 34.3888 79.94 34.8089 77.7003 34.8089C75.6874 34.8089 73.8215 34.4455 72.0999 33.7161C70.3782 32.9867 68.8885 31.9945 67.6308 30.7368C66.3731 29.479 65.3809 27.9894 64.6515 26.2677C63.9221 24.5461 63.5587 22.6905 63.5587 20.706C63.5587 18.7214 63.9221 16.8658 64.6515 15.1442C65.3809 13.4225 66.3731 11.9329 67.6308 10.6751C68.8885 9.41742 70.3782 8.42517 72.0999 7.6958C73.8215 6.96642 75.69 6.60303 77.7003 6.60303C79.8626 6.60303 81.7673 6.97931 83.4116 7.73445C85.0585 8.4896 86.5224 9.58237 87.8059 11.0153L84.2234 14.4844C83.4193 13.554 82.4941 12.8117 81.4503 12.2602C80.4065 11.7061 79.1694 11.4303 77.7364 11.4303C76.4787 11.4303 75.2983 11.6494 74.1926 12.0901C73.087 12.5308 72.123 13.1519 71.306 13.956C70.489 14.7601 69.8421 15.7344 69.3653 16.8787C68.8885 18.023 68.6489 19.2988 68.6489 20.706C68.6489 22.1132 68.8885 23.3889 69.3653 24.5332C69.8421 25.6775 70.489 26.6518 71.306 27.4559C72.123 28.26 73.0844 28.8837 74.1926 29.3218C75.2983 29.7625 76.4812 29.9816 77.7364 29.9816C79.2441 29.9816 80.5843 29.6723 81.7518 29.0564C82.9193 28.4404 83.958 27.5667 84.8626 26.4353L88.4862 29.8708ZM103.419 31.7935H103.118C102.54 32.7239 101.759 33.4584 100.78 33.9996C99.798 34.5408 98.6794 34.8115 97.4243 34.8115C95.0867 34.8115 93.3445 34.095 92.2027 32.662C91.0584 31.229 90.4862 29.3193 90.4862 26.9301V15.7292H95.4269V26.327C95.4269 27.6595 95.7233 28.6466 96.3135 29.2857C96.9037 29.9275 97.7645 30.2471 98.8959 30.2471C99.5763 30.2471 100.172 30.1028 100.687 29.8141C101.203 29.5254 101.643 29.1363 102.007 28.6466C102.37 28.1569 102.648 27.577 102.837 26.9121C103.025 26.2445 103.12 25.5358 103.12 24.7806V15.7292H108.061V34.2058H103.422V31.7935H103.419ZM162.135 29.4945C161.331 31.0538 160.204 32.3295 158.759 33.3218C157.313 34.314 155.509 34.8115 153.349 34.8115C151.916 34.8115 150.602 34.5666 149.408 34.0769C148.215 33.5872 147.184 32.9017 146.315 32.0228C145.45 31.144 144.769 30.1053 144.279 28.912C143.79 27.7188 143.545 26.4043 143.545 24.9714C143.545 23.5384 143.79 22.2188 144.279 21.0127C144.769 19.8065 145.45 18.7678 146.315 17.9019C147.184 17.0333 148.215 16.3555 149.408 15.8658C150.602 15.3761 151.916 15.1313 153.349 15.1313C155.485 15.1313 157.282 15.621 158.741 16.6029C160.199 17.5849 161.266 18.8529 161.947 20.4121L157.421 22.2961C156.993 21.4405 156.447 20.7936 155.779 20.3554C155.112 19.9147 154.277 19.6957 153.272 19.6957C152.617 19.6957 152.004 19.8219 151.424 20.0719C150.846 20.3219 150.336 20.675 149.895 21.1261C149.455 21.5797 149.109 22.1312 148.857 22.7858C148.607 23.4405 148.48 24.1698 148.48 24.9739C148.48 25.7781 148.607 26.5074 148.857 27.1621C149.109 27.8167 149.455 28.3682 149.895 28.8218C150.336 29.2754 150.844 29.626 151.424 29.8785C152.004 30.1311 152.617 30.2548 153.272 30.2548C154.303 30.2548 155.176 30.0229 155.893 29.5564C156.609 29.0925 157.181 28.4198 157.609 27.5383L162.135 29.4945ZM181.704 29.7574C180.851 31.2651 179.699 32.4867 178.253 33.4146C176.807 34.345 175.042 34.8089 172.957 34.8089C171.55 34.8089 170.248 34.564 169.055 34.0744C167.862 33.5847 166.823 32.8991 165.944 32.0202C165.063 31.1414 164.38 30.1027 163.89 28.9095C163.4 27.7162 163.155 26.4018 163.155 24.9688C163.155 23.6363 163.395 22.3735 163.872 21.1802C164.349 19.9869 165.016 18.9431 165.869 18.0513C166.722 17.1596 167.735 16.4483 168.905 15.9199C170.073 15.3916 171.362 15.1287 172.771 15.1287C174.253 15.1287 175.573 15.3735 176.73 15.8632C177.887 16.3529 178.856 17.0333 179.635 17.8993C180.413 18.7678 181.006 19.791 181.408 20.9714C181.81 22.1518 182.011 23.4353 182.011 24.8167V25.2703C181.985 25.4198 181.972 25.559 181.972 25.6853C181.947 25.8116 181.936 25.9482 181.936 26.1002H168.021C168.122 26.8554 168.331 27.5023 168.645 28.0435C168.96 28.5847 169.349 29.0358 169.813 29.4017C170.279 29.7651 170.787 30.0306 171.341 30.193C171.895 30.3553 172.459 30.4378 173.039 30.4378C174.171 30.4378 175.106 30.1801 175.849 29.6646C176.591 29.1491 177.176 28.5023 177.601 27.7239L181.704 29.7574ZM136.754 32.247H136.452C135.875 32.9506 135.176 33.5537 134.359 34.0563C133.542 34.5589 132.493 34.8115 131.21 34.8115C130.254 34.8115 129.354 34.6542 128.514 34.3398C127.671 34.0254 126.937 33.5924 126.308 33.0383C125.679 32.4842 125.189 31.8192 124.836 31.0409C124.483 30.26 124.308 29.4069 124.308 28.4765C124.308 27.5203 124.496 26.6595 124.872 25.894C125.249 25.126 125.777 24.4662 126.457 23.9147C127.135 23.3606 127.934 22.9405 128.852 22.6518C129.769 22.3631 130.769 22.2188 131.849 22.2188C133.055 22.2188 134.05 22.3116 134.829 22.5023C135.607 22.6905 136.249 22.8863 136.751 23.0874V22.5204C136.751 21.541 136.362 20.7291 135.581 20.0874C134.803 19.4457 133.834 19.1261 132.679 19.1261C130.97 19.1261 129.524 19.8426 128.341 21.2755L124.759 18.8245C126.72 16.3606 129.396 15.1287 132.79 15.1287C135.656 15.1287 137.844 15.8014 139.352 17.1467C140.859 18.4921 141.614 20.4843 141.614 23.1235V34.2109H136.751V32.247H136.754ZM184.421 7.20611H189.361V34.2058H184.421V7.20611ZM111.527 15.7292H116.166V18.2936H116.468C116.695 17.84 116.996 17.4251 117.373 17.0488C117.749 16.6725 118.171 16.3426 118.635 16.0643C119.102 15.7833 119.604 15.5565 120.143 15.3838C120.684 15.2112 121.218 15.1261 121.746 15.1261C122.401 15.1261 122.96 15.1957 123.424 15.3375C123.89 15.4766 124.285 15.657 124.612 15.8813L123.293 20.2936C122.991 20.1441 122.659 20.023 122.293 19.9353C121.929 19.8477 121.481 19.8039 120.955 19.8039C120.277 19.8039 119.661 19.9353 119.107 20.2008C118.553 20.4663 118.084 20.8374 117.692 21.3194C117.303 21.7987 117.001 22.3606 116.787 23.0075C116.574 23.6518 116.468 24.3528 116.468 25.1105V34.2084H111.527V15.7292ZM136.754 26.7033C136.176 26.4275 135.578 26.2059 134.963 26.0435C134.347 25.8811 133.674 25.7987 132.944 25.7987C131.764 25.7987 130.852 26.0564 130.21 26.5719C129.568 27.0873 129.249 27.7239 129.249 28.4765C129.249 29.2316 129.555 29.8347 130.174 30.2857C130.79 30.7393 131.501 30.9636 132.305 30.9636C132.96 30.9636 133.563 30.845 134.115 30.6053C134.669 30.3656 135.138 30.0512 135.53 29.662C135.919 29.2729 136.22 28.8193 136.434 28.3038C136.648 27.7909 136.754 27.2548 136.754 26.7033ZM177.217 22.5925C177.191 22.2652 177.086 21.9018 176.898 21.4972C176.709 21.0951 176.434 20.7188 176.068 20.3658C175.704 20.0127 175.251 19.724 174.709 19.4972C174.168 19.2704 173.521 19.157 172.769 19.157C171.712 19.157 170.782 19.4585 169.978 20.0616C169.173 20.6647 168.606 21.5075 168.279 22.5874H177.217V22.5925Z" fill="#1A1AFF"/>
<path d="M45.2912 14.4768C45.2912 14.4768 45.2885 14.4794 45.2805 14.4821V14.4741L45.2912 14.4768Z" fill="#1A1AFF"/>
<path d="M42.7753 31.845C38.2856 34.5125 26.2548 41.3861 26.2548 41.3861V32.1981C26.2548 28.1285 28.3734 24.3554 31.8476 22.2369C32.7831 21.6956 33.6697 21.1802 34.5099 20.6931C36.3552 21.7575 38.4789 22.9765 38.4789 22.9765C40.881 24.3734 44.5742 27.961 42.7753 31.845Z" fill="url(#paint0_linear_936_11068)"/>
<path d="M42.8397 9.59524C35.9661 5.61591 26.2548 0 26.2548 0V9.18546C26.2548 13.2911 28.412 17.0952 31.9378 19.2034C32.2548 19.3941 33.3244 20.0126 34.5099 20.6931C36.3552 21.7575 38.4789 22.9765 38.4789 22.9765C40.881 24.3734 44.5742 27.961 42.7753 31.845C42.8655 31.7909 42.9557 31.7367 43.0382 31.6878C43.1026 31.6491 43.167 31.6079 43.2315 31.5641C46.9067 29.1904 49.1412 25.1054 49.1412 20.7034C49.1412 16.1493 46.7494 11.9328 42.8397 9.59524ZM45.2804 14.474L45.2907 14.4766C45.2907 14.4766 45.2881 14.4792 45.2804 14.4818V14.474Z" fill="url(#paint1_linear_936_11068)"/>
<path d="M6.36591 9.54112C10.8555 6.87363 22.8863 0 22.8863 0V9.18804C22.8863 13.2576 20.7678 17.0307 17.2936 19.1493C16.3581 19.6905 15.4715 20.2059 14.6313 20.6931C12.7859 19.6286 10.6622 18.4096 10.6622 18.4096C8.26021 17.0127 4.56696 13.4251 6.36591 9.54112Z" fill="url(#paint2_linear_936_11068)"/>
<path d="M6.30147 31.7909C13.1751 35.7702 22.8863 41.3861 22.8863 41.3861V32.2006C22.8863 28.095 20.7291 24.2909 17.2034 22.1827C16.8864 21.992 15.8168 21.3735 14.6313 20.6931C12.7859 19.6286 10.6622 18.4096 10.6622 18.4096C8.26021 17.0127 4.56696 13.4251 6.36591 9.54112C6.2757 9.59525 6.1855 9.64936 6.10302 9.69833C6.03859 9.73699 5.97416 9.77823 5.90973 9.82205C2.23451 12.1957 0 16.2807 0 20.6827C0 25.2368 2.39172 29.4533 6.30147 31.7909ZM3.86078 26.9121L3.85047 26.9095C3.85047 26.9095 3.85305 26.9069 3.86078 26.9043V26.9121Z" fill="url(#paint3_linear_936_11068)"/>
<path d="M42.7754 31.845C42.8656 31.7908 42.9558 31.7367 43.0383 31.6877C42.9507 31.7444 42.863 31.7986 42.7728 31.8501C42.7728 31.8475 42.7754 31.8475 42.7754 31.845Z" fill="#1A1AFF"/>
<path d="M45.2912 14.4768C45.2912 14.4768 45.2885 14.4794 45.2805 14.4821V14.4741L45.2912 14.4768Z" fill="#1A1AFF"/>
<defs>
<linearGradient id="paint0_linear_936_11068" x1="10.4577" y1="34.0059" x2="23.6078" y2="3.87025" gradientUnits="userSpaceOnUse">
<stop stop-color="#CF88FF"/>
<stop offset="1" stop-color="#B569FF"/>
</linearGradient>
<linearGradient id="paint1_linear_936_11068" x1="-0.000608731" y1="20.694" x2="49.1406" y2="20.694" gradientUnits="userSpaceOnUse">
<stop stop-color="#6666FF"/>
<stop offset="1" stop-color="#1919FF"/>
</linearGradient>
<linearGradient id="paint2_linear_936_11068" x1="38.6802" y1="7.38311" x2="25.5301" y2="37.5187" gradientUnits="userSpaceOnUse">
<stop stop-color="#CF88FF"/>
<stop offset="1" stop-color="#B569FF"/>
</linearGradient>
<linearGradient id="paint3_linear_936_11068" x1="49.1393" y1="20.694" x2="-0.00188045" y2="20.694" gradientUnits="userSpaceOnUse">
<stop stop-color="#6666FF"/>
<stop offset="1" stop-color="#1919FF"/>
</linearGradient>
</defs>
</svg>
