<svg width="30" height="24" viewBox="0 0 30 24" fill="none" xmlns="http://www.w3.org/2000/svg">
<g clip-path="url(#clip0_1249_17078)">
<path d="M8.28467 3.40869C3.70919 3.40869 0 7.14349 0 11.7502C0 16.3569 3.70947 20.0917 8.28467 20.0917C12.8599 20.0917 16.5693 16.3571 16.5693 11.7502C16.5693 7.14322 12.8603 3.40869 8.28467 3.40869ZM21.5149 3.89733C19.2271 3.89733 17.3728 7.41402 17.3728 11.7503C17.3728 16.0866 19.2274 19.6035 21.5152 19.6035C23.803 19.6035 25.6575 16.0868 25.6575 11.7503H25.6572C25.6572 7.41278 23.8029 3.89733 21.515 3.89733H21.5149ZM27.918 4.71528C27.1136 4.71528 26.4614 7.8652 26.4614 11.7503C26.4614 15.6354 27.1132 18.7854 27.918 18.7854C28.7228 18.7854 29.375 15.6346 29.375 11.7502C29.375 7.86492 28.7226 4.71528 27.9181 4.71528H27.918Z" fill="white"/>
</g>
<defs>
<clipPath id="clip0_1249_17078">
<rect width="29.375" height="23.5" fill="white"/>
</clipPath>
</defs>
</svg>
