<svg width="64" height="64" viewBox="0 0 64 64" fill="none" xmlns="http://www.w3.org/2000/svg">
<path fill-rule="evenodd" clip-rule="evenodd" d="M42.044 14.006C45.126 14.034 47.956 16.676 48.006 19.93C48.05 24.634 48.02 29.336 48.006 34.04C47.978 37.126 45.324 39.95 42.082 40.002C31.38 40.102 20.678 40.034 9.97398 40.002C6.89198 39.972 4.06398 37.332 4.01398 34.076C3.96998 29.374 3.99798 24.67 4.01198 19.968C4.04198 16.888 6.69398 14.056 9.93798 14.006C20.64 13.906 31.342 13.972 42.044 14.006ZM8.00998 32.366C8.01198 32.91 8.01198 33.454 8.01198 34C8.01198 35.034 8.91398 35.978 9.97398 36.002C10.542 36.01 11.11 36.018 11.678 36.026C11.664 35.986 11.65 35.946 11.636 35.906C11.024 34.27 9.65598 32.968 8.00998 32.366ZM44.026 32.366C42.38 32.98 41.006 34.326 40.376 36.004C40.92 36.002 41.462 36.002 42.004 36.002C43.04 36.002 43.984 35.1 44.006 34.04C44.016 33.482 44.022 32.924 44.026 32.366ZM26.054 20.004C29.292 20.036 32.324 22.548 32.9 25.768C33.674 30.096 29.634 34.794 24.73 33.886C21.89 33.358 19.506 30.894 19.084 28.024C18.516 24.148 21.674 20.1 25.874 20.006C25.934 20.004 25.994 20.004 26.054 20.004ZM11.648 18.004C11.104 18.004 10.56 18.004 10.016 18.004C8.98198 18.008 8.03598 18.904 8.01198 19.968C8.00398 20.534 7.99798 21.102 7.99198 21.668C8.03198 21.656 8.06998 21.642 8.10798 21.628C9.74398 21.018 11.046 19.648 11.648 18.004ZM40.37 17.982C40.986 19.628 42.33 21.004 44.01 21.634C44.008 21.092 44.008 20.55 44.008 20.008C44.008 18.972 43.106 18.028 42.044 18.006C41.486 17.996 40.928 17.988 40.37 17.982Z" fill="#031B4E"/>
<path d="M52.2759 21.5934C53.2322 21.7661 53.9619 22.5942 54.0065 23.5747C54.0065 28.1704 54.0214 32.7662 54.0065 37.3601C53.9638 41.8464 50.1219 45.9853 45.3145 46.0002H11.1553C9.3894 45.9204 8.41639 43.3059 10.1303 42.2846C10.4125 42.1156 10.5704 42.0265 11.1553 42.0005C22.5602 42.0005 33.9671 42.1082 45.372 42.0005C47.799 41.9615 49.9994 39.8316 50.0068 37.3026V23.5747C50.0588 22.4123 51.0838 21.4857 52.2759 21.5934Z" fill="#031B4E"/>
<path d="M58.274 27.5934C59.2303 27.7661 59.96 28.5942 60.0046 29.5747C60.0046 33.3887 60.0158 37.2046 60.0046 41.0186C59.9508 46.6932 55.0913 51.9816 48.958 52.0002H17.1534C15.7886 51.9389 14.7803 50.4646 15.3151 49.2149C15.5732 48.6077 16.1488 48.1509 16.7969 48.032C16.9529 48.0042 16.9937 48.0079 17.1534 48.0005C27.7692 48.0005 38.3831 48.0339 48.9989 48.0005C52.6365 47.9671 55.9938 44.8271 56.0049 40.948V29.5747C56.0569 28.4123 57.0819 27.4857 58.274 27.5934Z" fill="#031B4E"/>
<path fill-rule="evenodd" clip-rule="evenodd" d="M25.991 24.0057C24.023 24.0237 22.403 26.3417 23.283 28.2557C24.065 29.9577 26.627 30.5297 28.053 29.2017C29.711 27.6597 28.899 24.0877 26.089 24.0077C26.057 24.0057 26.025 24.0057 25.991 24.0057Z" fill="#031B4E"/>
</svg>
