<svg width="212" height="51" viewBox="0 0 212 51" fill="none" xmlns="http://www.w3.org/2000/svg">
<path d="M79.6402 26.0586V25.8863C79.6402 22.139 76.8405 19.0378 73.0502 19.0378C69.2598 19.0378 66.5032 22.0529 66.5032 25.8432V25.8863C66.5032 29.6335 69.3029 32.7347 73.0932 32.7347C76.8836 32.7347 79.6402 29.7197 79.6402 25.9724V26.0586ZM64.4358 26.0586V25.8863C64.4358 21.3206 67.9677 17.3149 73.0071 17.3149C78.0465 17.3149 81.4492 21.2776 81.4492 25.8432L81.4923 25.8863C81.4923 30.4519 77.9604 34.4576 72.9209 34.4576C67.8815 34.4576 64.3927 30.495 64.3927 25.9724L64.4358 26.0586ZM83.8612 17.6595H85.4118V32.347H94.8446V33.9407H83.8612V17.6595ZM102.77 32.347C106.948 32.347 109.532 29.5904 109.532 25.9293V25.8863C109.532 22.2251 106.948 19.2532 102.77 19.2532H99.0656V32.347H102.77ZM96.9551 17.6595H102.77C107.938 17.6595 111.643 21.1914 111.643 25.8432V25.8863C111.643 30.538 107.981 33.9407 102.77 33.9407H96.9551V17.6595ZM113.71 17.6595H117.673L122.023 24.6372L126.373 17.6595H130.465V33.9407H126.804V23.3881L122.023 30.2796H121.937L117.371 23.4742V33.9407H113.71V17.6595ZM134.169 27.0923V17.6595H137.83V26.9631C137.83 29.6766 138.993 31.0549 141.233 31.0549C143.473 31.0549 144.636 29.7197 144.636 27.0923V17.6595H148.297V26.9631C148.297 31.9594 145.626 34.4576 141.19 34.4576C136.754 34.4145 134.169 31.9594 134.169 27.0923ZM155.662 20.8038H150.407V17.6595H164.018V20.8038H158.806V33.9407H155.662V20.8038ZM166.129 27.0923V17.6595H169.79V26.9631C169.79 29.6766 170.953 31.0549 173.192 31.0549C175.389 31.0549 176.595 29.7197 176.595 27.0923V17.6595H180.256V26.9631C180.256 31.9594 177.586 34.4576 173.149 34.4576C168.713 34.4145 166.129 31.9594 166.129 27.0923ZM191.843 27.0923L189.646 21.7083L187.449 27.0923H191.843ZM188.009 17.6595H191.369L198.476 33.8976H194.685L193.178 30.2365H186.2L184.65 33.9407H180.945L188.009 17.6595ZM199.94 17.6595H203.601V30.7965H212V33.9407H199.94" fill="#B6B7BB"/>
<path d="M38.4202 33.553C38.937 32.6485 38.6355 31.5287 37.731 31.0118C36.8265 30.4949 35.7066 30.7964 35.1898 31.7009C34.6729 32.6054 34.9744 33.7253 35.8789 34.2422L36.8265 34.5006C37.4726 34.5006 38.0756 34.156 38.4202 33.553ZM32.0024 28.0398C32.7777 26.6185 35.8358 27.0922 34.8452 29.1166C36.0512 28.4275 37.5587 28.3844 38.8078 29.1597C40.746 30.2796 41.3921 32.7347 40.2723 34.6729C39.1524 36.6111 36.6973 37.2572 34.759 36.1374C33.4669 35.4051 32.7777 34.0699 32.7347 32.6916C31.4425 34.5437 29.5473 32.1747 30.3657 30.7964C29.5904 30.1934 28.0398 29.2458 26.6185 28.3844C26.5754 27.3507 26.5323 26.3169 26.4892 25.2832C28.2552 26.1877 30.7964 27.523 32.0024 28.0398ZM11.8879 34.2422C12.7924 33.7253 13.0939 32.6054 12.577 31.7009C12.0601 30.7964 10.9403 30.4949 10.0358 31.0118C9.13125 31.5287 8.82974 32.6485 9.34661 33.553C9.69118 34.156 10.3373 34.5006 10.9403 34.5006L11.8879 34.2422ZM21.1052 28.3413C19.6839 29.2028 18.1764 30.1934 17.358 30.7534C18.2194 32.1317 16.2812 34.5437 14.989 32.6485C14.989 34.0268 14.2568 35.3621 12.9647 36.0943C11.0264 37.2141 8.57131 36.525 7.45144 34.6298C6.33157 32.6916 7.02072 30.2365 8.91589 29.1166C10.208 28.3844 11.7156 28.4275 12.9216 29.0736C11.9309 27.0492 14.989 26.5754 15.7643 27.9968C17.0134 27.4799 19.5116 26.1447 21.2345 25.1971C21.2345 26.2739 21.1914 27.3076 21.1052 28.3413ZM25.757 10.208C25.757 9.17432 24.9386 8.35596 23.9049 8.35596C22.8712 8.35596 22.0528 9.17432 22.0528 10.208C22.0528 11.2418 22.8712 12.0601 23.9049 12.0601C24.9386 12.1032 25.757 11.2418 25.757 10.208ZM27.9106 10.208C27.9106 11.6725 27.1353 12.9647 25.9293 13.6538C28.169 13.8261 27.0922 16.6688 25.4555 16.6688C25.2832 18.1764 25.1971 21.6221 25.1971 23.5173C25.1971 30.538 26.1877 39.1524 28.5998 41.4783C30.3226 41.6075 32.3901 41.3921 34.5006 40.7891C36.7834 40.1861 38.7647 39.2385 40.2292 38.1617C41.9951 38.3771 43.5026 38.8509 44.6656 39.497C42.0382 41.7798 39.0662 43.9334 35.8358 45.7855C32.0024 47.9821 27.7814 49.7912 23.9049 50.9972C20.0715 49.7912 15.8074 47.9821 11.974 45.7855C8.7436 43.8903 5.77164 41.7367 3.14425 39.497C4.30719 38.894 5.81471 38.4202 7.58066 38.1617C9.0451 39.2385 10.9833 40.143 13.3092 40.7891C15.4628 41.3491 17.4872 41.6075 19.2101 41.4783C21.6221 39.1524 22.6128 30.538 22.6128 23.5173C22.6128 21.6221 22.5266 18.1764 22.3543 16.6688C20.7176 16.7119 19.5977 13.8261 21.8805 13.6538C20.7176 12.9647 19.8992 11.6725 19.8992 10.208C19.8992 7.96831 21.7083 6.20236 23.948 6.20236C26.1447 6.20236 27.9106 8.01138 27.9106 10.208ZM35.8358 4.52255C39.7554 6.80537 43.2873 9.43276 46.3023 12.2324C47.2499 16.2812 47.7668 20.6315 47.7668 25.154C47.7668 28.9013 47.3791 32.5624 46.733 35.9651C45.6132 35.2759 44.4502 34.1991 43.3734 32.7777C43.5888 30.9687 43.4165 28.8151 42.7704 26.5323C42.2105 24.3787 41.349 22.4836 40.4015 21.0622C37.731 20.2869 31.9163 22.4835 26.5754 25.2401C26.5754 24.6802 26.5754 24.1203 26.5754 23.5173C26.5754 23.0435 26.5754 22.4835 26.5754 21.8805C31.0979 18.8224 35.1036 15.3336 35.7066 12.9216C34.9744 11.371 33.7253 9.69119 32.1747 8.1406C30.4949 6.46079 28.729 5.21171 27.0492 4.47949C26.36 2.84275 26.0154 1.29216 25.9724 0C29.2458 1.16294 32.6054 2.62739 35.8358 4.52255ZM20.7607 4.47949C19.0809 5.21171 17.3149 6.41772 15.6351 8.1406C14.0845 9.69119 12.8354 11.371 12.1032 12.9216C12.7062 15.3336 16.7119 18.8224 21.2345 21.8805C21.2345 22.4835 21.2345 23.0435 21.2345 23.5173C21.2345 24.0772 21.2345 24.6371 21.1914 25.2401C15.8074 22.4835 9.99269 20.33 7.3653 21.0622C6.37464 22.4836 5.55628 24.3787 4.99634 26.5323C4.39334 28.8582 4.22105 30.9687 4.39334 32.7777C3.31654 34.156 2.15359 35.2759 1.03372 35.9651C0.387645 32.5624 0 28.9013 0 25.154C0 20.5884 0.51686 16.2812 1.46444 12.2324C4.47948 9.38968 8.01138 6.76229 11.9309 4.52255C15.2044 2.62739 18.5209 1.16294 21.8375 0.0430746C21.7944 1.33523 21.4498 2.88582 20.7607 4.47949Z" fill="#B6B7BB"/>
</svg>
