<svg width="64" height="64" viewBox="0 0 64 64" fill="none" xmlns="http://www.w3.org/2000/svg">
<path d="M33.9831 32C37.2969 32 39.9831 34.6863 39.9831 38L39.98 40.9935C40.3915 48.3397 34.7334 52.0032 24.2408 52.0032C13.7821 52.0032 8 48.3876 8 41.0983V38C8 34.6863 10.6863 32 14 32H33.9831ZM49.9856 32C53.2993 32 55.9856 34.6863 55.9856 38L55.9825 40.1063C56.3442 46.6961 51.3447 50 42.2064 50C40.9659 50 39.7997 49.9396 38.7106 49.8186C40.8575 47.8361 42.0059 45.1458 42.002 41.7463L41.9769 40.8816L41.9831 38C41.9831 35.6097 40.9348 33.4643 39.2729 31.9984L49.9856 32ZM24 8C29.5237 8 34.0016 12.4779 34.0016 18.0016C34.0016 23.5254 29.5237 28.0032 24 28.0032C18.4763 28.0032 13.9984 23.5254 13.9984 18.0016C13.9984 12.4779 18.4763 8 24 8ZM44 12C48.4183 12 52 15.5817 52 20C52 24.4183 48.4183 28 44 28C39.5817 28 36 24.4183 36 20C36 15.5817 39.5817 12 44 12Z" fill="#031B4E"/>
</svg>
