<svg width="98" height="104" viewBox="0 0 98 104" fill="none" xmlns="http://www.w3.org/2000/svg">
<g filter="url(#filter0_d_964_14176)">
<circle cx="49" cy="45" r="45" fill="#F48C06"/>
</g>
<path fill-rule="evenodd" clip-rule="evenodd" d="M56.533 31.5045C58.8445 31.5255 60.967 33.507 61.0045 35.9475C61.0375 39.4755 61.015 43.002 61.0045 46.53C60.9835 48.8445 58.993 50.9625 56.5615 51.0015C48.535 51.0765 40.5085 51.0255 32.4805 51.0015C30.169 50.979 28.048 48.999 28.0105 46.557C27.9775 43.0305 27.9985 39.5025 28.009 35.976C28.0315 33.666 30.0205 31.542 32.4535 31.5045C40.48 31.4295 48.5065 31.479 56.533 31.5045ZM31.0075 45.2745C31.009 45.6825 31.009 46.0905 31.009 46.5C31.009 47.2755 31.6855 47.9835 32.4805 48.0015C32.9065 48.0075 33.3325 48.0135 33.7585 48.0195C33.748 47.9895 33.7375 47.9595 33.727 47.9295C33.268 46.7025 32.242 45.726 31.0075 45.2745ZM58.0195 45.2745C56.785 45.735 55.7545 46.7445 55.282 48.003C55.69 48.0015 56.0965 48.0015 56.503 48.0015C57.28 48.0015 57.988 47.325 58.0045 46.53C58.012 46.1115 58.0165 45.693 58.0195 45.2745ZM44.5405 36.003C46.969 36.027 49.243 37.911 49.675 40.326C50.2555 43.572 47.2255 47.0955 43.5475 46.4145C41.4175 46.0185 39.6295 44.1705 39.313 42.018C38.887 39.111 41.2555 36.075 44.4055 36.0045C44.4505 36.003 44.4955 36.003 44.5405 36.003ZM33.736 34.503C33.328 34.503 32.92 34.503 32.512 34.503C31.7365 34.506 31.027 35.178 31.009 35.976C31.003 36.4005 30.9985 36.8265 30.994 37.251C31.024 37.242 31.0525 37.2315 31.081 37.221C32.308 36.7635 33.2845 35.736 33.736 34.503ZM55.2775 34.4865C55.7395 35.721 56.7475 36.753 58.0075 37.2255C58.006 36.819 58.006 36.4125 58.006 36.006C58.006 35.229 57.3295 34.521 56.533 34.5045C56.1145 34.497 55.696 34.491 55.2775 34.4865Z" fill="white"/>
<path d="M64.2069 37.195C64.9241 37.3245 65.4715 37.9456 65.5049 38.681C65.5049 42.1278 65.516 45.5746 65.5049 49.0201C65.4729 52.3847 62.5914 55.489 58.9858 55.5001H33.3665C32.042 55.4402 31.3123 53.4794 32.5977 52.7134C32.8094 52.5867 32.9278 52.5198 33.3665 52.5003C41.9202 52.5003 50.4753 52.5811 59.029 52.5003C60.8492 52.4711 62.4995 50.8737 62.5051 48.9769V38.681C62.5441 37.8092 63.3128 37.1142 64.2069 37.195Z" fill="white"/>
<path d="M68.7054 41.695C69.4227 41.8245 69.97 42.4456 70.0034 43.181C70.0034 46.0415 70.0118 48.9034 70.0034 51.7639C69.963 56.0199 66.3184 59.9862 61.7185 60.0001H37.865C36.8414 59.9542 36.0852 58.8484 36.4863 57.9111C36.6798 57.4557 37.1116 57.1131 37.5976 57.024C37.7146 57.0031 37.7452 57.0059 37.865 57.0003C45.8268 57.0003 53.7873 57.0254 61.7491 57.0003C64.4773 56.9753 66.9953 54.6203 67.0036 51.711V43.181C67.0426 42.3092 67.8114 41.6142 68.7054 41.695Z" fill="white"/>
<path fill-rule="evenodd" clip-rule="evenodd" d="M44.4932 39.0043C43.0172 39.0178 41.8022 40.7563 42.4622 42.1918C43.0487 43.4683 44.9702 43.8973 46.0397 42.9013C47.2832 41.7448 46.6742 39.0658 44.5667 39.0058C44.5427 39.0043 44.5187 39.0043 44.4932 39.0043Z" fill="white"/>
<defs>
<filter id="filter0_d_964_14176" x="0" y="0" width="98" height="104" filterUnits="userSpaceOnUse" color-interpolation-filters="sRGB">
<feFlood flood-opacity="0" result="BackgroundImageFix"/>
<feColorMatrix in="SourceAlpha" type="matrix" values="0 0 0 0 0 0 0 0 0 0 0 0 0 0 0 0 0 0 127 0" result="hardAlpha"/>
<feOffset dy="10"/>
<feGaussianBlur stdDeviation="2"/>
<feColorMatrix type="matrix" values="0 0 0 0 0 0 0 0 0 0 0 0 0 0 0 0 0 0 0.06 0"/>
<feBlend mode="normal" in2="BackgroundImageFix" result="effect1_dropShadow_964_14176"/>
<feBlend mode="normal" in="SourceGraphic" in2="effect1_dropShadow_964_14176" result="shape"/>
</filter>
</defs>
</svg>
