<svg width="128" height="29" viewBox="0 0 128 29" fill="none" xmlns="http://www.w3.org/2000/svg">
<path fill-rule="evenodd" clip-rule="evenodd" d="M27.5118 17.5182H23.2644C23.2644 19.589 23.8741 21.1532 25.1341 22.1666C26.2518 23.224 28.0199 23.7748 30.3163 23.7748C34.706 23.7748 37.8966 22.1445 37.8966 17.7385C37.8966 16.5048 37.5105 15.4253 36.7382 14.5441C35.8237 13.6188 33.9743 12.8477 31.1698 12.2309C29.0157 11.7903 27.9386 11.0853 27.9386 10.182C27.9386 9.25677 28.7718 8.7721 30.3976 8.7721C31.7592 8.7721 32.6127 9.21271 32.8973 10.0058C33.1411 10.7108 33.7711 11.0853 34.7263 11.1294H37.3682C37.2666 9.25677 36.6163 7.80277 35.3969 6.74531C34.1369 5.73192 32.4502 5.22522 30.3163 5.22522C26.5363 5.29131 23.7318 7.11983 23.7318 10.9751C23.7521 13.795 25.6421 15.5575 29.3002 16.2845C32.1453 16.8132 33.5679 17.5622 33.5679 18.4875C33.5679 19.6331 32.694 20.1618 30.9463 20.1618C28.9141 20.1618 27.6134 19.5009 27.5118 17.5182Z" fill="#B6B7BB"/>
<path fill-rule="evenodd" clip-rule="evenodd" d="M52.4982 17.8916H49.473C48.9083 17.8916 48.4444 18.0892 48.0612 18.5282C47.2545 19.3843 46.3671 19.8234 45.399 19.8234C43.3822 19.8234 42.2931 18.4404 42.1519 15.6964H52.7604C53.0629 8.69366 50.6225 5.22522 45.399 5.22522C40.3973 5.24717 37.8965 8.29852 37.8965 14.3793C37.8965 20.46 40.3772 23.5992 45.3385 23.7748C49.3721 23.7748 51.6108 21.6674 52.4982 17.8916ZM45.3385 8.91318C47.1133 8.91318 48.1419 10.1205 48.3839 12.4914H42.2125C42.515 10.1205 43.5637 8.91318 45.3385 8.91318Z" fill="#B6B7BB"/>
<path fill-rule="evenodd" clip-rule="evenodd" d="M66.9036 23.2522V12.9713C66.9443 7.95989 64.6252 5.48645 59.9056 5.48645C55.1656 5.48645 52.7854 7.95989 52.7854 12.9713V23.2522H57.0168V12.068C57.0575 10.2398 57.9933 9.35792 59.8445 9.35792C61.6754 9.35792 62.6316 10.2398 62.7129 12.068V21.0799C62.7129 22.4564 63.4046 23.1662 64.7879 23.2522H66.9036Z" fill="#B6B7BB"/>
<path fill-rule="evenodd" clip-rule="evenodd" d="M75.4768 9.2175C77.7061 9.2175 78.8612 10.9287 78.9626 14.4179C78.9626 18.0849 77.7669 19.9295 75.416 19.9295C73.0449 19.9295 71.9099 18.0849 71.9505 14.4179C72.0721 10.9287 73.2272 9.2175 75.4768 9.2175ZM81.0094 0.26123H78.9626V7.95073C77.9087 6.06169 76.3077 5.15051 74.2608 5.15051C69.8631 5.3283 67.6743 8.46188 67.6743 14.6179C67.6743 20.6406 70.2279 23.6853 75.3349 23.7742C80.4825 23.8187 83.0766 21.1073 83.0766 15.6847V2.5503C83.0766 1.32798 82.1444 0.26123 81.0094 0.26123Z" fill="#B6B7BB"/>
<path fill-rule="evenodd" clip-rule="evenodd" d="M87.9958 2.5503C87.9958 1.03907 87.3076 0.26123 85.9516 0.26123H83.8467V15.6847C83.8467 21.1073 86.4373 23.8187 91.5782 23.7742C96.6786 23.6853 99.249 20.6406 99.249 14.6179C99.249 8.46188 97.0631 5.3283 92.6711 5.15051C90.6067 5.15051 89.0482 6.06169 87.9958 7.95073V2.5503ZM91.5175 9.2175C93.7641 9.2175 94.9177 10.9287 94.9987 14.4179C94.9987 18.0849 93.8248 19.9295 91.4567 19.9295C89.0887 19.9295 87.9755 18.0849 87.9958 14.4179C88.1172 10.9287 89.2709 9.2175 91.5175 9.2175Z" fill="#B6B7BB"/>
<path fill-rule="evenodd" clip-rule="evenodd" d="M106.693 5.22522C101.724 5.22522 99.249 8.29852 99.249 14.511C99.249 20.6576 101.724 23.7748 106.693 23.7748C111.643 23.7748 114.138 20.6576 114.138 14.511C114.138 8.29852 111.643 5.22522 106.693 5.22522ZM106.693 9.1766C108.786 9.1766 109.852 10.8889 109.852 14.3793C109.812 17.9136 108.766 19.7575 106.653 19.7575C104.541 19.7575 103.474 18.0014 103.434 14.511C103.434 10.9547 104.52 9.1766 106.693 9.1766Z" fill="#B6B7BB"/>
<path fill-rule="evenodd" clip-rule="evenodd" d="M124.198 3.91895C123.368 3.91895 122.762 4.31172 122.398 5.09728L119.222 10.858L116.391 5.49005H111.638L116.674 14.153L111.314 23.2523H116.391L119.344 17.6225L122.276 23.2523H127.252L121.771 14.1966L128 3.91895H124.198Z" fill="#B6B7BB"/>
<path fill-rule="evenodd" clip-rule="evenodd" d="M18.6437 21.7648L2.16753 28.3052C1.50712 28.5674 0.762932 28.235 0.505343 27.5629C0.447358 27.4116 0.417603 27.2506 0.417603 27.0882V25.1604C0.417603 22.8466 1.81605 20.7712 3.93678 19.9376L18.2483 14.3121L18.6437 21.7648Z" fill="#B6B7BB"/>
<path fill-rule="evenodd" clip-rule="evenodd" d="M1.18774 6.95159L17.6043 0.508623C18.1334 0.30096 18.7277 0.569165 18.9318 1.10768C18.9685 1.20462 18.9908 1.3066 18.998 1.41025L19.1571 3.7088C19.3098 5.91474 18.0347 7.96525 16.0104 8.76899L1.57681 14.4999L1.18774 6.95159Z" fill="#B6B7BB"/>
<path fill-rule="evenodd" clip-rule="evenodd" d="M1.99761 14.9578L18.6437 21.6846V15.0465C18.6437 14.5123 18.3242 14.032 17.837 13.8336L1.18774 7.05396V13.7437C1.18774 14.2791 1.50871 14.7602 1.99761 14.9578Z" fill="#B6B7BB"/>
</svg>
