<svg width="203" height="45" viewBox="0 0 203 45" fill="none" xmlns="http://www.w3.org/2000/svg">
<path fill-rule="evenodd" clip-rule="evenodd" d="M70.5209 14.2543V16.7636H64.6007V32.9764H61.8082V16.7636H55.9177V14.2543H70.5209Z" fill="#B6B7BB"/>
<path fill-rule="evenodd" clip-rule="evenodd" d="M72.9209 19.667V22.1206C73.0859 21.3848 73.4955 20.7284 74.0816 20.2606C74.6672 19.7892 75.5556 19.5542 76.7467 19.5556H77.1711V22.262H75.9128C74.7415 22.262 73.9507 22.572 73.5405 23.192C73.1302 23.812 72.9251 24.7992 72.9251 26.1535V32.9763H70.1857V19.667H72.9209ZM82.3317 33.3149C80.9355 33.3149 79.8278 32.9577 79.0087 32.2435C78.2032 31.5604 77.7508 30.5431 77.7801 29.4813C77.7546 28.8423 77.8889 28.207 78.1706 27.6342C78.4292 27.1572 78.7983 26.7506 79.2464 26.4492C79.7498 26.1167 80.3009 25.8644 80.8803 25.7013C81.5126 25.5142 82.1917 25.3356 82.9174 25.1656C84.0349 24.9213 84.929 24.7242 85.5995 24.5742C86.2679 24.4242 86.6605 24.1692 86.7984 23.8135V23.6163C86.8024 23.0782 86.5605 22.5683 86.1427 22.2342C85.7056 21.857 84.9842 21.6692 83.9784 21.6706C83.0107 21.6706 82.2617 21.8849 81.7312 22.3135C81.1975 22.7427 80.8765 23.3863 80.8527 24.0749V24.2442H78.0878C78.1232 22.7599 78.689 21.5899 79.7854 20.7342C80.8817 19.8785 82.2914 19.4499 84.0144 19.4485C85.6908 19.4485 87.0078 19.8435 87.9655 20.6335C88.9232 21.4235 89.4028 22.6642 89.4042 24.3556V30.9256L89.4318 32.9827H86.7793V30.9813C86.3594 31.7458 85.7162 32.3609 84.9375 32.7427C84.1242 33.1337 83.2324 33.3295 82.3317 33.3149ZM82.8346 31.1999C83.767 31.2049 84.6783 30.9199 85.4446 30.3835C86.2354 29.8377 86.6867 28.9163 86.7984 27.6192V25.9842C86.3159 26.2934 85.7817 26.5112 85.2218 26.627L83.3121 27.077C82.6374 27.2371 81.9886 27.4933 81.3853 27.8377C80.8499 28.1483 80.5356 28.739 80.5747 29.3613C80.5581 29.8702 80.774 30.3585 81.1604 30.6856C81.5523 31.0285 82.1103 31.1999 82.8346 31.1999ZM97.2978 33.2592C96.4967 33.2647 95.7027 33.1065 94.9637 32.7942C94.2444 32.4875 93.6005 32.0252 93.0773 31.4399C92.5243 30.8072 92.1022 30.0691 91.8359 29.2692C91.2396 27.3942 91.2396 25.3777 91.8359 23.5027C92.1047 22.691 92.5262 21.9394 93.0773 21.2892C93.5981 20.6873 94.2416 20.2063 94.9637 19.8792C95.7108 19.5465 96.5196 19.3785 97.336 19.3863C98.1946 19.3722 99.0419 19.5857 99.7933 20.0056C100.51 20.4108 101.123 20.9813 101.58 21.6706V13.9713H104.251V32.9763H101.569V31.0306C101.113 31.7184 100.495 32.2809 99.7699 32.6677C99.0071 33.0686 98.1577 33.2718 97.2978 33.2592ZM97.996 30.8913C99.0431 30.9238 100.043 30.4522 100.691 29.6206C101.37 28.7763 101.709 27.6956 101.709 26.3785V26.1642C101.709 24.867 101.379 23.8092 100.718 22.9906C100.058 22.172 99.1503 21.7635 97.996 21.7649C96.9602 21.7285 95.9641 22.1691 95.2884 22.9627C94.5994 23.7627 94.255 24.877 94.255 26.3056V26.5027C94.255 27.9127 94.5994 28.9985 95.2884 29.7599C95.9832 30.5194 96.9729 30.9329 97.996 30.8913ZM112.935 33.2142C110.923 33.2142 109.326 32.5892 108.145 31.3392C106.964 30.0892 106.373 28.4463 106.373 26.4106C106.364 25.4483 106.529 24.4925 106.861 23.5906C107.16 22.7714 107.615 22.0193 108.2 21.377C108.774 20.7632 109.468 20.2784 110.24 19.9542C111.058 19.6102 111.936 19.4374 112.822 19.4463C114.759 19.4463 116.276 20.062 117.374 21.2935C118.471 22.5249 119.021 24.1835 119.022 26.2692V27.2849H109.109C109.182 28.4149 109.559 29.3077 110.24 29.9635C110.92 30.6192 111.818 30.9485 112.935 30.9513C114.051 30.9513 114.888 30.7113 115.447 30.2313C115.983 29.785 116.396 29.2073 116.648 28.5535L119.078 29.5135C118.6 30.5594 117.855 31.4581 116.92 32.117C115.939 32.8485 114.611 33.2142 112.935 33.2142ZM112.767 21.7092C111.844 21.6847 110.947 22.0236 110.267 22.6542C109.567 23.3254 109.135 24.2328 109.053 25.2042H116.202C116.146 24.077 115.815 23.2127 115.209 22.6113C114.604 22.0099 113.79 21.7056 112.767 21.6985V21.7092ZM121.227 32.9763V14.2542H127.65C130.646 14.2542 132.945 15.0577 134.547 16.6649C136.148 18.272 136.949 20.6077 136.949 23.672C136.949 26.6806 136.125 28.9835 134.477 30.5806C132.828 32.1777 130.46 32.9763 127.37 32.9763H121.227ZM124.02 16.7356V30.4949H127.455C129.632 30.4949 131.27 29.9313 132.369 28.8042C133.469 27.677 134.018 25.9849 134.016 23.7277V23.5585C134.016 21.2285 133.495 19.5085 132.452 18.3985C131.41 17.2885 129.809 16.7342 127.65 16.7356H124.02ZM144.929 33.2142C142.918 33.2142 141.321 32.5892 140.14 31.3392C138.959 30.0892 138.368 28.4463 138.368 26.4106C138.358 25.4483 138.524 24.4925 138.856 23.5906C139.155 22.7714 139.61 22.0193 140.195 21.377C140.768 20.7632 141.463 20.2784 142.234 19.9542C143.052 19.6102 143.931 19.4374 144.817 19.4463C146.753 19.4463 148.271 20.062 149.368 21.2935C150.466 22.5249 151.016 24.1835 151.017 26.2692V27.2849H141.11C141.185 28.4149 141.562 29.3077 142.241 29.9635C142.92 30.6192 143.818 30.9485 144.936 30.9513C146.052 30.9513 146.889 30.7113 147.448 30.2313C147.984 29.785 148.397 29.2073 148.649 28.5535L151.083 29.5092C150.608 30.5557 149.866 31.4557 148.933 32.117C147.943 32.8485 146.608 33.2142 144.929 33.2142ZM144.762 21.7092C143.839 21.6847 142.942 22.0236 142.262 22.6542C141.562 23.3254 141.13 24.2328 141.048 25.2042H148.197C148.141 24.077 147.809 23.2127 147.204 22.6113C146.599 22.0099 145.786 21.7056 144.766 21.6985L144.762 21.7092ZM160.15 33.2592C159.299 33.2739 158.459 33.0704 157.708 32.6677C157 32.2793 156.392 31.728 155.934 31.0585V38.222H153.226V19.667H155.906V21.6427C156.861 20.2088 158.469 19.3603 160.18 19.3885C160.982 19.3833 161.777 19.546 162.514 19.8663C163.232 20.1762 163.878 20.6355 164.409 21.2142C164.964 21.8407 165.387 22.5749 165.652 23.372C165.96 24.2933 166.111 25.2606 166.098 26.2327V26.2606C166.111 27.2475 165.961 28.2297 165.652 29.1663C165.385 29.9748 164.963 30.722 164.409 31.3649C163.886 31.9607 163.244 32.4371 162.525 32.762C161.777 33.0964 160.968 33.2659 160.15 33.2592ZM159.482 30.8913C160.518 30.9266 161.514 30.4852 162.189 29.6913C162.877 28.897 163.221 27.7856 163.223 26.357V26.1599C163.223 24.7499 162.878 23.6642 162.189 22.9027C161.496 22.1398 160.506 21.7223 159.482 21.7606C158.429 21.7207 157.422 22.1924 156.772 23.0292C156.101 23.8763 155.766 24.957 155.766 26.2713V26.4985C155.766 27.7956 156.097 28.8527 156.759 29.6699C157.421 30.487 158.329 30.8942 159.482 30.8913ZM174.055 33.2142C172.12 33.2142 170.545 32.5713 169.332 31.2856C168.118 29.9999 167.508 28.357 167.503 26.357C167.493 25.4059 167.658 24.4613 167.991 23.5713C168.298 22.7576 168.763 22.0144 169.359 21.3856C169.952 20.766 170.665 20.2771 171.454 19.9499C173.168 19.2727 175.072 19.2727 176.786 19.9499C177.571 20.2709 178.281 20.7557 178.868 21.3727C179.457 22.0045 179.917 22.7472 180.222 23.5585C180.554 24.4484 180.719 25.3931 180.71 26.3442C180.719 27.2882 180.553 28.2257 180.222 29.1085C179.915 29.9217 179.446 30.6627 178.844 31.2856C178.245 31.8965 177.528 32.3764 176.737 32.6956C175.886 33.0441 174.974 33.2203 174.055 33.2142ZM174.055 30.872C175.228 30.872 176.169 30.4727 176.877 29.6742C177.586 28.8756 177.94 27.7992 177.938 26.4449V26.3335C177.938 24.942 177.595 23.8377 176.907 23.0206C176.22 22.2035 175.289 21.7942 174.115 21.7927C172.942 21.7927 172.006 22.202 171.307 23.0206C170.608 23.8392 170.26 24.9435 170.261 26.3335V26.4449C170.261 27.7992 170.601 28.8756 171.28 29.6742C171.959 30.4727 172.884 30.867 174.055 30.857V30.872ZM188.641 32.9763H186.286C185.095 32.9206 184.294 32.6156 183.884 32.0613C183.474 31.507 183.262 30.7035 183.247 29.6506V22.037H181.153V19.667H183.247V17.0742L185.9 15.4092V19.667H188.748V22.037H185.896V29.312C185.871 29.6461 185.97 29.9775 186.174 30.242C186.414 30.4691 186.739 30.5821 187.067 30.5527H188.641V32.9763ZM198.158 15.7027H199.317C199.644 15.6766 199.97 15.7602 200.244 15.9406C200.439 16.0948 200.549 16.3336 200.541 16.5835C200.558 17.0441 200.215 17.4374 199.761 17.4792C200.003 17.5434 200.21 17.7012 200.338 17.9185C200.485 18.1956 200.574 18.5006 200.599 18.8142L200.614 18.9363H200.1V18.8335C200.076 18.5347 199.975 18.2474 199.807 17.9999C199.627 17.7762 199.348 17.6586 199.065 17.687H198.64V18.9342H198.163L198.158 15.7027ZM198.636 16.1163V17.2863H199.251C199.38 17.2887 199.507 17.2684 199.629 17.2263C199.722 17.1951 199.808 17.1439 199.879 17.0763C199.941 17.0165 199.988 16.9432 200.017 16.862C200.046 16.7875 200.06 16.7083 200.06 16.6285C200.07 16.4762 200.003 16.3291 199.881 16.2385C199.708 16.141 199.51 16.097 199.313 16.112L198.636 16.1163Z" fill="#B6B7BB"/>
<path fill-rule="evenodd" clip-rule="evenodd" d="M199.387 20.6957C198.034 20.6966 196.814 19.8743 196.296 18.6124C195.778 17.3505 196.063 15.8976 197.019 14.9313C197.976 13.965 199.414 13.6757 200.664 14.1983C201.914 14.7209 202.729 15.9524 202.729 17.3185C202.727 19.1819 201.232 20.6921 199.387 20.6957ZM199.387 14.415C198.223 14.4141 197.173 15.1217 196.727 16.2077C196.281 17.2937 196.527 18.544 197.35 19.3753C198.173 20.2066 199.412 20.4551 200.487 20.0048C201.562 19.5545 202.263 18.4942 202.262 17.3185C202.26 15.7159 200.974 14.4173 199.387 14.415ZM34.7406 15.2657C35.4394 15.2666 36.0699 14.8421 36.3379 14.1904C36.6059 13.5387 36.4586 12.7881 35.9648 12.2888C35.471 11.7895 34.7279 11.6398 34.0822 11.9097C33.4365 12.1795 33.0154 12.8157 33.0154 13.5214C33.0149 13.9838 33.1964 14.4275 33.52 14.7547C33.8435 15.0818 34.2827 15.2657 34.7406 15.2657ZM29.8282 16.6028C29.8274 17.1449 30.1502 17.6341 30.646 17.8419C31.1417 18.0497 31.7127 17.9353 32.0922 17.552C32.4718 17.1687 32.5851 16.5921 32.3793 16.0915C32.1735 15.5908 31.6891 15.2648 31.1523 15.2657C30.801 15.2651 30.4639 15.4058 30.2154 15.6567C29.967 15.9076 29.8277 16.248 29.8282 16.6028ZM31.2903 12.18C32.2416 12.1788 33.012 11.3992 33.0112 10.4385C33.0104 9.47785 32.2388 8.69958 31.2874 8.69997C30.3361 8.70037 29.5651 9.47928 29.5651 10.44C29.5651 10.9018 29.747 11.3447 30.0705 11.6711C30.3941 11.9975 30.8329 12.1805 31.2903 12.18ZM27.5726 9.36854C28.4516 9.36736 29.1631 8.64686 29.162 7.75926C29.1608 6.87166 28.4473 6.15308 27.5684 6.15426C26.6894 6.15545 25.9779 6.87595 25.979 7.76354C25.9796 8.18979 26.1478 8.59834 26.4467 8.89934C26.7455 9.20033 27.1505 9.36911 27.5726 9.36854ZM23.4603 7.10141C24.0522 7.10314 24.5867 6.74429 24.8142 6.19246C25.0417 5.64063 24.9173 5.00472 24.4991 4.58175C24.0808 4.15877 23.4513 4.03219 22.9045 4.26114C22.3578 4.49009 22.0016 5.02937 22.0025 5.62712C22.0025 6.4405 22.6548 7.10022 23.4603 7.10141ZM19.4795 5.35713C20.0182 5.35885 20.5048 5.03237 20.7119 4.53019C20.9191 4.02801 20.8059 3.44924 20.4253 3.06426C20.0447 2.67928 19.4717 2.56407 18.9741 2.77246C18.4765 2.98084 18.1524 3.47168 18.1533 4.01569C18.1527 4.37126 18.2922 4.71246 18.541 4.96409C18.7897 5.21572 19.1274 5.35713 19.4795 5.35713ZM14.9046 4.4164C15.6004 4.41522 16.1637 3.84482 16.1629 3.14212C16.1621 2.43942 15.5976 1.8703 14.9017 1.87069C14.2059 1.87108 13.642 2.44084 13.642 3.14354C13.6432 3.84687 14.2081 4.4164 14.9046 4.4164ZM10.3233 4.68213C10.9811 4.67857 11.5118 4.13783 11.5095 3.47357C11.5071 2.8093 10.9726 2.27239 10.3148 2.27356C9.65701 2.27474 9.12437 2.81356 9.12437 3.47783C9.12494 3.79817 9.25163 4.10513 9.47653 4.33104C9.70143 4.55695 10.0061 4.68325 10.3233 4.68213ZM6.20669 4.01354C5.62073 4.01354 5.14572 4.49324 5.14572 5.08497C5.14572 5.67671 5.62073 6.1564 6.20669 6.1564C6.79265 6.1564 7.26767 5.67671 7.26767 5.08497C7.26767 4.80081 7.15589 4.52829 6.95691 4.32736C6.75794 4.12643 6.48808 4.01354 6.20669 4.01354ZM4.08474 8.29926C4.08474 7.86591 3.82624 7.47522 3.42978 7.30939C3.03332 7.14355 2.57698 7.23522 2.27354 7.54164C1.97011 7.84807 1.87933 8.30891 2.04355 8.70928C2.20777 9.10964 2.59464 9.37069 3.02377 9.37069C3.60807 9.36833 4.0805 8.88932 4.0805 8.29926H4.08474ZM1.23072 11.6507C0.754918 11.6519 0.370159 12.0423 0.371326 12.5228C0.372504 13.0033 0.759164 13.3919 1.23496 13.3907C1.71076 13.3895 2.09552 12.999 2.09436 12.5185C2.09436 12.2876 2.00323 12.0662 1.84114 11.9034C1.67906 11.7405 1.45938 11.6495 1.23072 11.6507ZM1.56811 17.0743C1.56892 16.7739 1.3897 16.5029 1.11464 16.3886C0.839585 16.2743 0.523382 16.3394 0.314607 16.5533C0.105832 16.7673 0.0459907 17.0875 0.163201 17.3636C0.280412 17.6396 0.551372 17.8166 0.848765 17.8114C1.24776 17.8055 1.56815 17.4772 1.56811 17.0743ZM1.43018 20.7493C1.06621 20.7505 0.771477 21.0482 0.770335 21.4157C0.769205 21.7833 1.06209 22.0828 1.42605 22.0864C1.79 22.0899 2.08852 21.7961 2.09435 21.4285C2.0972 21.249 2.02842 21.0759 1.90349 20.9481C1.77856 20.8203 1.60799 20.7487 1.43018 20.7493ZM3.15533 25.1721C2.78996 25.1733 2.49462 25.4731 2.4954 25.8421C2.49618 26.2111 2.79279 26.5096 3.15815 26.5093C3.52352 26.5089 3.8195 26.2096 3.8195 25.8407C3.8195 25.663 3.74945 25.4926 3.62484 25.3672C3.50022 25.2417 3.33128 25.1715 3.15533 25.1721ZM5.68045 25.8407C5.41248 25.8407 5.17094 26.0038 5.06859 26.2539C4.96625 26.504 5.02328 26.7917 5.21306 26.9828C5.40285 27.1738 5.68796 27.2305 5.93528 27.1263C6.1826 27.0222 6.34336 26.7777 6.3425 26.5071C6.34133 26.1387 6.04526 25.8407 5.68045 25.8407ZM4.54945 22.3607C4.22131 22.3607 3.9553 22.6293 3.9553 22.9607C3.9553 23.2921 4.22131 23.5607 4.54945 23.5607C4.87759 23.5607 5.14359 23.2921 5.14359 22.9607C5.14359 22.8016 5.081 22.6489 4.96957 22.5364C4.85815 22.4239 4.70703 22.3607 4.54945 22.3607ZM3.15533 19.4828C3.15275 19.7287 3.29741 19.9518 3.52159 20.0477C3.74577 20.1436 4.00509 20.0933 4.17816 19.9203C4.35123 19.7474 4.40378 19.4861 4.31122 19.2587C4.21866 19.0313 3.9993 18.8828 3.75584 18.8828C3.59733 18.8817 3.4449 18.9443 3.33222 19.0569C3.21954 19.1695 3.15589 19.3228 3.15533 19.4828ZM3.41845 15.6643C3.41414 15.9382 3.57424 16.1876 3.82363 16.2955C4.07303 16.4033 4.36225 16.3482 4.55562 16.1561C4.74899 15.9639 4.80815 15.6727 4.70535 15.4192C4.60254 15.1656 4.35817 15 4.08686 15C3.72134 14.9988 3.4231 15.2952 3.41845 15.6643ZM5.48098 11.5114C5.00518 11.5114 4.61947 11.9009 4.61947 12.3814C4.61947 12.8619 5.00518 13.2514 5.48098 13.2514C5.95678 13.2514 6.3425 12.8619 6.3425 12.3814C6.34133 11.9014 5.9563 11.5126 5.48098 11.5114ZM9.12437 9.77354C9.12437 9.34019 8.86588 8.94951 8.46942 8.78367C8.07296 8.61784 7.61661 8.7095 7.31318 9.01593C7.00974 9.32236 6.91897 9.7832 7.08319 10.1836C7.2474 10.5839 7.63427 10.845 8.0634 10.845C8.64936 10.845 9.12437 10.3653 9.12437 9.77354ZM10.4485 8.4364C10.4485 9.02814 10.9235 9.50783 11.5094 9.50783C12.0954 9.50783 12.5704 9.02814 12.5704 8.4364C12.5704 7.84467 12.0954 7.36497 11.5094 7.36497C10.926 7.36851 10.4548 7.84717 10.4548 8.4364H10.4485ZM15.1613 7.1014C14.5417 7.10258 14.0402 7.61062 14.0409 8.2364C14.0417 8.86217 14.5445 9.36894 15.1642 9.36854C15.7838 9.36815 16.286 8.86075 16.286 8.23497C16.2848 7.61107 15.7855 7.10493 15.1677 7.1014H15.1613ZM18.6732 7.76783C18.0872 7.76783 17.6122 8.24753 17.6122 8.83926C17.6122 9.43099 18.0872 9.91069 18.6732 9.91069C19.2591 9.91069 19.7341 9.43099 19.7341 8.83926C19.7341 8.24753 19.2591 7.76783 18.6732 7.76783ZM22.1977 11.5114C22.8921 11.5043 23.4501 10.9313 23.4454 10.2301C23.4407 9.52878 22.8752 8.96342 22.1808 8.96574C21.4863 8.9681 20.9246 9.53725 20.9245 10.2385C20.9251 10.5793 21.0607 10.9057 21.3011 11.1448C21.5415 11.384 21.8667 11.516 22.2041 11.5114H22.1977ZM24.1223 11.9785C24.12 12.6789 24.6801 13.2486 25.3736 13.2514C26.0671 13.2541 26.6316 12.6889 26.6347 11.9885C26.6378 11.2882 26.0784 10.7178 25.3849 10.7143C24.6932 10.7154 24.1322 11.2801 24.1287 11.9785H24.1223ZM27.0336 14.1214C27.0302 14.691 27.367 15.2066 27.8869 15.4276C28.4068 15.6485 29.0073 15.5314 29.4083 15.1308C29.8092 14.7301 29.9316 14.125 29.7184 13.5976C29.5051 13.0703 28.9982 12.7247 28.4341 12.7221C27.6658 12.7221 27.0423 13.3498 27.04 14.1257L27.0336 14.1214ZM12.3519 12.4285C11.8772 11.5943 10.8228 11.3066 9.99666 11.7858C9.17054 12.2651 8.88556 13.3299 9.36013 14.1642C9.8347 14.9985 10.8891 15.2863 11.7153 14.8071C12.1121 14.577 12.402 14.1971 12.5214 13.751C12.6408 13.3049 12.5798 12.8292 12.3519 12.4285ZM14.6287 13.7314C13.9945 14.1013 13.7773 14.9202 14.1434 15.5607C14.5095 16.2012 15.3204 16.4208 15.9548 16.0512C16.5891 15.6816 16.8067 14.8628 16.4409 14.2221C16.2651 13.9142 15.9752 13.6896 15.6352 13.5979C15.2952 13.5063 14.933 13.5551 14.6287 13.7335V13.7314ZM9.07557 16.3478C8.25238 16.828 7.96983 17.8907 8.44414 18.7227C8.91845 19.5547 9.9704 19.8415 10.7949 19.3637C11.6195 18.8859 11.905 17.824 11.4331 16.9907C11.206 16.5885 10.8294 16.2945 10.3868 16.1738C9.94421 16.0532 9.47225 16.1158 9.07557 16.3478ZM10.2936 23.8307C11.0542 23.3863 11.3142 22.4033 10.8743 21.635C10.4344 20.8668 9.46105 20.604 8.70019 21.0481C7.93933 21.4923 7.67895 22.4751 8.11857 23.2435C8.3294 23.6132 8.67728 23.8829 9.08537 23.9931C9.49347 24.1032 9.92821 24.0448 10.2936 23.8307ZM10.4442 28.38C11.1401 27.9721 11.3772 27.0721 10.974 26.369C10.5707 25.6659 9.6797 25.4256 8.98308 25.8321C8.28645 26.2386 8.04769 27.1382 8.44959 27.8421C8.64268 28.1814 8.96176 28.429 9.33615 28.5299C9.71055 28.6309 10.1094 28.5769 10.4442 28.38ZM11.4734 30.7178C11.2057 30.2482 10.6841 29.9878 10.152 30.058C9.61998 30.1283 9.18227 30.5154 9.04314 31.0388C8.90401 31.5621 9.09088 32.1186 9.51655 32.4485C9.94223 32.7784 10.5228 32.8168 10.9874 32.5457C11.62 32.1753 11.8372 31.3583 11.4734 30.7178ZM11.2463 34.7143C10.644 35.0664 10.4383 35.8448 10.7868 36.4532C11.1353 37.0615 11.9061 37.2695 12.5086 36.9178C13.1111 36.5661 13.3174 35.7879 12.9694 35.1793C12.8021 34.8867 12.5265 34.6733 12.2033 34.5861C11.8801 34.4989 11.5358 34.545 11.2463 34.7143ZM13.8542 38.6057C13.4357 38.8497 13.204 39.3242 13.267 39.808C13.3301 40.2918 13.6756 40.6896 14.1424 40.8159C14.6091 40.9421 15.1052 40.772 15.3994 40.3848C15.6935 39.9977 15.7277 39.4697 15.486 39.0471C15.3269 38.7678 15.0635 38.5646 14.7549 38.4828C14.4462 38.4011 14.118 38.4476 13.8436 38.6121L13.8542 38.6057ZM17.3575 41.5135C16.9859 41.7302 16.7801 42.1516 16.8361 42.5813C16.8921 43.0109 17.1989 43.3642 17.6134 43.4764C18.0279 43.5885 18.4685 43.4375 18.7298 43.0937C18.991 42.7498 19.0214 42.281 18.8068 41.9057C18.665 41.6578 18.4309 41.4775 18.1566 41.405C17.8824 41.3325 17.5908 41.3739 17.3469 41.52L17.3575 41.5135ZM21.7075 42.69C21.3359 42.9066 21.1301 43.3281 21.1861 43.7577C21.2421 44.1874 21.5489 44.5406 21.9634 44.6528C22.3779 44.7649 22.8185 44.6139 23.0798 44.2701C23.341 43.9263 23.3714 43.4574 23.1568 43.0821C23.015 42.8342 22.7809 42.6539 22.5066 42.5814C22.2324 42.509 21.9408 42.5504 21.6969 42.6964L21.7075 42.69ZM26.3122 42.3278C25.9004 42.5681 25.7593 43.1 25.997 43.516C26.2347 43.932 26.7613 44.0747 27.1734 43.8349C27.5855 43.5951 27.7271 43.0634 27.4899 42.6471C27.3762 42.4465 27.1879 42.2999 26.9668 42.24C26.7457 42.1801 26.5101 42.2117 26.3122 42.3278ZM30.4839 40.5171C30.1349 40.7207 30.0153 41.1715 30.2168 41.524C30.4183 41.8765 30.8647 41.9974 31.2138 41.7939C31.563 41.5905 31.6827 41.1397 31.4813 40.7871C31.3845 40.6177 31.225 40.4941 31.038 40.4435C30.8509 40.3928 30.6516 40.4193 30.4839 40.5171ZM33.9512 37.8793C33.7183 38.0148 33.5893 38.2788 33.6244 38.548C33.6596 38.8171 33.8519 39.0383 34.1116 39.1084C34.3713 39.1784 34.6472 39.0834 34.8105 38.8677C34.9738 38.6521 34.9923 38.3583 34.8573 38.1235C34.7694 37.9696 34.6245 37.8573 34.4545 37.8115C34.2844 37.7656 34.1034 37.79 33.9512 37.8793ZM36.8816 34.1635C36.6487 34.2991 36.5197 34.5631 36.5548 34.8322C36.59 35.1014 36.7823 35.3226 37.042 35.3926C37.3017 35.4627 37.5776 35.3677 37.7409 35.152C37.9042 34.9364 37.9227 34.6426 37.7877 34.4078C37.6047 34.0885 37.2002 33.9791 36.8837 34.1635H36.8816ZM37.0938 31.8707C36.9599 31.6364 36.6995 31.5067 36.4339 31.542C36.1684 31.5773 35.9501 31.7707 35.8808 32.032C35.8116 32.2933 35.9051 32.571 36.1177 32.7355C36.3303 32.9 36.6201 32.919 36.8519 32.7835C37.0056 32.6966 37.1186 32.5514 37.166 32.3801C37.2134 32.2088 37.1912 32.0255 37.1044 31.8707H37.0938ZM34.3353 35.4857C34.6189 35.317 34.7135 34.9481 34.5467 34.6616C34.3798 34.3751 34.0146 34.2793 33.7308 34.4476C33.4469 34.6159 33.3518 34.9847 33.5183 35.2714C33.5988 35.4124 33.7323 35.5147 33.8885 35.555C34.0446 35.5954 34.2103 35.5704 34.348 35.4857H34.3353ZM31.1523 36.8764C30.944 36.9994 30.8297 37.2371 30.8627 37.4785C30.8957 37.72 31.0695 37.9175 31.3031 37.9789C31.5366 38.0403 31.7838 37.9535 31.9292 37.759C32.0746 37.5645 32.0896 37.3007 31.9672 37.0907C31.8007 36.8098 31.4426 36.7146 31.1608 36.8764H31.1523ZM27.6766 38.4364C27.4437 38.572 27.3147 38.836 27.3498 39.1051C27.3849 39.3742 27.5773 39.5955 27.837 39.6655C28.0967 39.7355 28.3726 39.6405 28.5359 39.4249C28.6992 39.2092 28.7177 38.9154 28.5827 38.6807C28.3999 38.3652 28.0001 38.2563 27.6851 38.4364H27.6766ZM24.0693 38.685C23.6596 38.9278 23.5218 39.4597 23.7613 39.874C24.0009 40.2883 24.5273 40.4286 24.938 40.1876C25.3488 39.9466 25.4889 39.4153 25.2512 39C25.0121 38.5846 24.4849 38.4436 24.0735 38.685H24.0693ZM21.8858 37.9457C21.6712 37.5704 21.2539 37.3626 20.8285 37.4191C20.403 37.4757 20.0532 37.7855 19.9421 38.2041C19.8311 38.6227 19.9806 39.0676 20.3211 39.3314C20.6615 39.5952 21.1258 39.6259 21.4975 39.4093C21.7419 39.2679 21.9206 39.0342 21.9942 38.7597C22.0679 38.4851 22.0304 38.1923 21.89 37.9457H21.8858ZM17.5655 35.2093C17.0589 35.5058 16.886 36.1608 17.1792 36.6727C17.4724 37.1846 18.1208 37.3598 18.628 37.0641C19.1351 36.7685 19.3092 36.1138 19.0169 35.6014C18.8762 35.3547 18.6441 35.1748 18.3718 35.1012C18.0995 35.0276 17.8094 35.0665 17.5655 35.2093ZM17.0774 32.4793C16.8522 32.0781 16.4098 31.8535 15.9566 31.9103C15.5034 31.967 15.1287 32.2939 15.0072 32.7384C14.8858 33.183 15.0415 33.6577 15.4018 33.941C15.7621 34.2244 16.256 34.2606 16.6531 34.0328C17.1939 33.7212 17.3836 33.0268 17.0774 32.4793ZM14.3189 28.7464C13.8152 29.0446 13.6448 29.6978 13.9376 30.2079C14.2303 30.7181 14.8762 30.8935 15.3829 30.6004C15.8895 30.3073 16.0665 29.6559 15.7788 29.1428C15.6388 28.896 15.4074 28.7156 15.1356 28.6412C14.8637 28.5668 14.5737 28.6047 14.3295 28.7464H14.3189ZM14.9406 27C15.5429 26.6478 15.7486 25.8694 15.4002 25.2611C15.0517 24.6527 14.2809 24.4447 13.6784 24.7964C13.0758 25.1481 12.8696 25.9264 13.2176 26.535C13.3849 26.8275 13.6605 27.0409 13.9837 27.1281C14.3069 27.2153 14.6511 27.1692 14.9406 27ZM14.8409 23.3571C15.442 23.0055 15.6472 22.2286 15.2995 21.6214C14.9518 21.0142 14.1826 20.8064 13.581 21.1571C12.9795 21.5078 12.7731 22.2844 13.12 22.8921C13.2865 23.1849 13.5617 23.3987 13.8847 23.4859C14.2077 23.5732 14.5519 23.5269 14.8409 23.3571ZM15.2207 19.7357C15.8832 19.3447 16.1075 18.4861 15.7222 17.816C15.3368 17.146 14.4872 16.9172 13.8226 17.3045C13.1581 17.6918 12.9292 18.5492 13.311 19.2214C13.497 19.5451 13.8034 19.7804 14.162 19.875C14.5206 19.9695 14.9017 19.9155 15.2207 19.725V19.7357ZM23.0932 32.4321C22.3203 31.8751 21.2468 32.0554 20.6941 32.8351C20.1414 33.6148 20.3185 34.6992 21.0898 35.2584C21.8611 35.8176 22.9352 35.6402 23.49 34.8621C23.7614 34.4865 23.8722 34.0167 23.7976 33.5579C23.723 33.0991 23.4692 32.6897 23.0932 32.4214V32.4321ZM20.6211 28.32C20.3069 28.7595 20.286 29.3469 20.5682 29.808C20.8503 30.2691 21.38 30.513 21.9097 30.4258C22.4395 30.3386 22.865 29.9375 22.9875 29.4097C23.1101 28.8819 22.9055 28.3316 22.4693 28.0157C21.8755 27.5855 21.0489 27.7216 20.6211 28.32ZM27.9737 33.8228C28.3822 33.251 28.4092 32.4869 28.042 31.8872C27.6748 31.2875 26.9858 30.9704 26.2967 31.084C25.6076 31.1977 25.0543 31.7196 24.895 32.4061C24.7358 33.0926 25.002 33.8084 25.5695 34.2193C26.3421 34.7787 27.4174 34.6014 27.9737 33.8228ZM31.8144 30.0235C31.101 29.5083 30.1092 29.674 29.5981 30.3938C29.0871 31.1136 29.25 32.1154 29.9623 32.6323C30.6745 33.1492 31.6667 32.9858 32.1794 32.2671C32.4263 31.921 32.5266 31.4898 32.4581 31.0688C32.3896 30.6478 32.158 30.2717 31.8144 30.0235ZM36.1877 30.0707C36.5328 29.5876 36.5557 28.9421 36.2455 28.4354C35.9354 27.9287 35.3534 27.6607 34.7712 27.7564C34.189 27.8521 33.7213 28.2928 33.5864 28.8727C33.4514 29.4525 33.6759 30.0574 34.1549 30.405C34.8082 30.8775 35.7167 30.7281 36.1877 30.0707ZM39.3834 25.8021C38.7892 25.3724 37.9627 25.51 37.5366 26.1097C37.1106 26.7093 37.2461 27.5441 37.8395 27.9749C38.4329 28.4057 39.2597 28.2695 39.6868 27.6707C39.893 27.3826 39.9769 27.0234 39.9199 26.6727C39.863 26.3219 39.6699 26.0086 39.3834 25.8021ZM42.7064 22.6157C42.1412 22.2077 41.3556 22.3394 40.9513 22.9099C40.547 23.4803 40.677 24.2738 41.2417 24.6824C41.8064 25.0909 42.5922 24.9601 42.9971 24.39C43.1929 24.1162 43.2723 23.7748 43.2177 23.4417C43.1632 23.1085 42.9791 22.8112 42.7064 22.6157ZM45.0617 18.7243C44.5265 18.3371 43.7819 18.4612 43.3982 19.0014C43.0145 19.5416 43.1369 20.2936 43.6716 20.6814C44.2064 21.0693 44.9511 20.9461 45.3355 20.4064C45.5204 20.1468 45.5954 19.8236 45.544 19.508C45.4927 19.1924 45.3192 18.9105 45.0617 18.7243ZM46.0845 14.5264C45.6081 14.1834 44.9467 14.2946 44.606 14.775C44.2654 15.2553 44.3741 15.9235 44.849 16.2686C45.324 16.6136 45.9858 16.5053 46.3285 16.0264C46.4941 15.7951 46.5614 15.5067 46.5156 15.2251C46.4698 14.9435 46.3146 14.6921 46.0845 14.5264ZM44.1175 11.7857C44.5939 12.1287 45.2553 12.0175 45.596 11.5371C45.9366 11.0567 45.8279 10.3886 45.353 10.0435C44.878 9.69848 44.2161 9.80682 43.8734 10.2857C43.7079 10.517 43.6406 10.8054 43.6864 11.087C43.7322 11.3685 43.8874 11.62 44.1175 11.7857ZM41.8831 7.69283C42.2696 7.97274 42.8076 7.88336 43.085 7.49316C43.3623 7.10296 43.2741 6.55959 42.8878 6.2793C42.5016 5.99902 41.9634 6.08789 41.6857 6.47783C41.4105 6.86751 41.4987 7.4085 41.8831 7.68854V7.69283ZM38.5325 4.59426C38.8593 4.82961 39.3132 4.75329 39.5469 4.42367C39.7805 4.09405 39.7058 3.6356 39.3799 3.39899C39.0539 3.16239 38.5998 3.23697 38.3649 3.56569C38.2515 3.72435 38.2054 3.92211 38.2369 4.11517C38.2683 4.30824 38.3747 4.48066 38.5325 4.59426ZM34.713 2.48783C35.0103 2.70228 35.4235 2.63295 35.6361 2.33291C35.8488 2.03287 35.7806 1.61558 35.4837 1.40052C35.1868 1.18545 34.7735 1.25394 34.5602 1.55354C34.4586 1.69912 34.4187 1.87963 34.4494 2.05503C34.48 2.23042 34.5787 2.38621 34.7236 2.48783H34.713ZM30.1678 1.31997C30.4651 1.53443 30.8782 1.46509 31.0909 1.16505C31.3036 0.865016 31.2353 0.447721 30.9384 0.232659C30.6415 0.0175968 30.2282 0.0860849 30.015 0.385687C29.9117 0.529758 29.8698 0.70953 29.8985 0.884999C29.9272 1.06047 30.0241 1.21708 30.1678 1.31997ZM28.1625 2.99997C28.4601 3.21205 28.8714 3.14158 29.0831 2.84225C29.2947 2.54291 29.2272 2.12716 28.9319 1.91178C28.6367 1.6964 28.2246 1.7623 28.0097 2.05926C27.9044 2.20377 27.8613 2.38504 27.89 2.56209C27.9188 2.73914 28.017 2.897 28.1625 2.99997ZM31.7104 4.09497C31.9783 4.28774 32.3502 4.22502 32.5415 3.9548C32.7328 3.68457 32.6713 3.30894 32.404 3.11532C32.1367 2.92169 31.7647 2.98322 31.5725 3.25283C31.3838 3.52247 31.4453 3.89528 31.7104 4.08854V4.09497ZM35.6679 4.49997C35.4721 4.35763 35.2107 4.34841 35.0056 4.47662C34.8005 4.60484 34.6921 4.84522 34.731 5.08564C34.7698 5.32606 34.9483 5.51914 35.1831 5.57482C35.418 5.6305 35.6629 5.5378 35.8037 5.33997C35.8964 5.21056 35.9343 5.04913 35.9088 4.89145C35.8833 4.73377 35.7966 4.59287 35.6679 4.49997ZM37.8089 8.0314C38.1057 8.24667 38.5191 8.17836 38.7325 7.87878C38.9459 7.57919 38.8786 7.16166 38.5821 6.94592C38.2856 6.73019 37.8721 6.79786 37.6583 7.09712C37.4497 7.39545 37.5168 7.8076 37.8089 8.02283V8.0314ZM39.324 10.0371C39.1198 10.3225 39.1062 10.7041 39.2893 11.0036C39.4725 11.3032 39.8164 11.4618 40.1606 11.4053C40.5047 11.3488 40.7812 11.0884 40.861 10.7457C40.9408 10.4029 40.8082 10.0454 40.525 9.83997C40.1415 9.55833 39.6047 9.64261 39.324 10.0285V10.0371ZM39.7484 13.5643C39.4079 14.0448 39.517 14.713 39.9923 15.0578C40.4675 15.4026 41.1294 15.2937 41.4717 14.8145C41.8141 14.3353 41.7076 13.6666 41.2337 13.32C40.7609 12.9754 40.1014 13.0806 39.7569 13.5557L39.7484 13.5643ZM40.3171 16.9285C39.8407 16.5856 39.1792 16.6968 38.8386 17.1771C38.4979 17.6575 38.6066 18.3257 39.0816 18.6707C39.5565 19.0158 40.2184 18.9074 40.5611 18.4285C40.7266 18.1973 40.7939 17.9089 40.7481 17.6273C40.7023 17.3457 40.5471 17.0942 40.3171 16.9285ZM37.0705 21.8164C37.5761 22.1826 38.2801 22.0656 38.6427 21.5549C39.0054 21.0443 38.8895 20.3334 38.3839 19.9672C37.8782 19.6009 37.1743 19.7179 36.8116 20.2285C36.6368 20.4736 36.5659 20.7788 36.6145 21.0768C36.6631 21.3747 36.8272 21.6409 37.0705 21.8164ZM34.3353 22.7957C33.9948 23.2763 34.104 23.9445 34.5792 24.2892C35.0544 24.634 35.7163 24.5251 36.0586 24.0459C36.401 23.5667 36.2945 22.8981 35.8206 22.5514C35.5919 22.384 35.3065 22.3157 35.0276 22.3616C34.7488 22.4074 34.4996 22.5637 34.3353 22.7957ZM32.7544 24.4478C32.1893 24.0398 31.4037 24.1715 30.9993 24.742C30.595 25.3125 30.725 26.1059 31.2898 26.5145C31.8545 26.9231 32.6403 26.7922 33.0451 26.2221C33.2404 25.9482 33.3195 25.607 33.2649 25.274C33.2104 24.941 33.0266 24.6437 32.7544 24.4478ZM29.7837 27.8143C30.0828 27.3966 30.1029 26.8381 29.8347 26.3996C29.5665 25.961 29.063 25.7291 28.5592 25.8122C28.0555 25.8952 27.6511 26.2768 27.535 26.7787C27.4188 27.2805 27.6138 27.8036 28.0288 28.1035C28.3004 28.3021 28.6391 28.3831 28.97 28.3288C29.3009 28.2746 29.5968 28.0894 29.7922 27.8143H29.7837ZM26.0745 27.1714C25.4509 26.72 24.5831 26.8642 24.1357 27.4937C23.6882 28.1231 23.8305 28.9996 24.4535 29.4519C25.0766 29.9041 25.9446 29.761 26.3928 29.1321C26.8379 28.5059 26.6996 27.6344 26.083 27.18L26.0745 27.1714Z" fill="#B6B7BB"/>
<path fill-rule="evenodd" clip-rule="evenodd" d="M22.2296 44.8028C21.8663 44.8039 21.5232 44.6341 21.3015 44.3434C21.0798 44.0527 21.0048 43.6744 21.0986 43.3199C21.1776 43.017 21.3742 42.7589 21.644 42.6042C22.2013 42.2788 22.9143 42.4705 23.2375 43.0328C23.4458 43.397 23.446 43.8457 23.2382 44.2102C23.0304 44.5746 22.6461 44.7997 22.2296 44.8007V44.8028ZM22.2296 42.6599C22.0628 42.6604 21.899 42.7047 21.7543 42.7885C21.2978 43.0548 21.1414 43.6444 21.4049 44.1055C21.6685 44.5667 22.2522 44.7248 22.7089 44.4588C23.1657 44.1929 23.3225 43.6034 23.0593 43.1421C22.8868 42.8422 22.5688 42.6583 22.2254 42.6599H22.2296ZM26.7494 44.0592C26.4002 44.0618 26.0763 43.8754 25.9006 43.5707C25.6349 43.1025 25.7943 42.5055 26.2571 42.2357C26.6091 42.0306 27.0506 42.0696 27.3621 42.3332C27.6736 42.5968 27.7887 43.029 27.6503 43.4149C27.5119 43.8008 27.1494 44.0582 26.743 44.0592H26.7494ZM26.7494 42.3192C26.3579 42.3204 26.0323 42.6234 25.999 43.0173C25.9657 43.4111 26.2359 43.7654 26.6215 43.8335C27.007 43.9017 27.3803 43.6611 27.4814 43.2792C27.5346 43.0839 27.5071 42.8751 27.405 42.7007C27.2676 42.4601 27.0116 42.314 26.7366 42.3192H26.7494ZM17.8881 43.6242C17.3196 43.6314 16.8288 43.2239 16.7258 42.6593C16.6228 42.0947 16.9376 41.5373 17.4713 41.3394C18.0049 41.1415 18.6022 41.3608 18.8854 41.8585C19.094 42.2224 19.0944 42.6711 18.8864 43.0353C18.6785 43.3996 18.2938 43.6241 17.8775 43.6242H17.8881ZM17.8881 41.4814C17.5473 41.481 17.2323 41.6645 17.062 41.9626C16.8916 42.2606 16.8919 42.6279 17.0627 42.9257C17.2937 43.3321 17.7806 43.512 18.2167 43.352C18.6529 43.1921 18.9121 42.7386 18.831 42.2772C18.75 41.8158 18.3521 41.48 17.8881 41.4814ZM30.8638 41.9957C30.5632 41.9949 30.2861 41.8313 30.1381 41.5671C29.9089 41.164 30.0455 40.6496 30.4437 40.4164C30.8448 40.1912 31.3505 40.3289 31.5853 40.7271C31.7333 40.9878 31.733 41.3083 31.5844 41.5686C31.4358 41.829 31.1614 41.99 30.8638 41.9914V41.9957ZM30.5498 40.6071C30.2531 40.7807 30.1508 41.1635 30.3206 41.4642C30.4969 41.758 30.8707 41.8599 31.1694 41.6957C31.466 41.5221 31.5684 41.1393 31.3986 40.8385C31.2267 40.539 30.8476 40.4356 30.5498 40.6071ZM14.4569 40.9649C13.9917 40.9656 13.5614 40.7157 13.328 40.3092C12.9678 39.6854 13.1757 38.8849 13.7927 38.5199C14.1947 38.2831 14.6914 38.2815 15.0948 38.5159C15.4982 38.7502 15.7466 39.1847 15.7459 39.6546C15.7452 40.1246 15.4955 40.5583 15.0914 40.7914C14.895 40.9073 14.6716 40.9679 14.4442 40.9671L14.4569 40.9649ZM14.4569 38.5564C13.9649 38.5551 13.5336 38.8885 13.4065 39.3685C13.2788 39.849 13.4865 40.3562 13.9129 40.6052C14.3394 40.8542 14.8783 40.783 15.2269 40.4316C15.5755 40.0801 15.647 39.536 15.4012 39.1049C15.2023 38.7605 14.8347 38.5516 14.4399 38.5585L14.4569 38.5564ZM24.5234 40.4121C24.1738 40.4165 23.8491 40.2296 23.6747 39.9235C23.5454 39.6994 23.511 39.4321 23.5792 39.1821C23.6449 38.9316 23.8068 38.718 24.029 38.5885C24.4929 38.3209 25.0836 38.4806 25.3531 38.9464C25.6194 39.4146 25.461 40.0121 24.9988 40.2835C24.8491 40.3705 24.6791 40.4156 24.5065 40.4142L24.5234 40.4121ZM24.5234 38.6721C24.1816 38.6727 23.8825 38.9045 23.7935 39.2378C23.7403 39.4331 23.7679 39.6419 23.8699 39.8164C24.0532 40.1371 24.4381 40.2785 24.7827 40.1517C25.1272 40.025 25.3318 39.6667 25.2679 39.302C25.2041 38.9374 24.8901 38.6718 24.5234 38.6721ZM28.0098 39.7928C27.7703 39.7938 27.5442 39.6819 27.3981 39.4902C27.252 39.2986 27.2028 39.0492 27.265 38.8157C27.3167 38.6161 27.446 38.4461 27.6236 38.3442C27.8927 38.1856 28.2301 38.2068 28.4776 38.398C28.7252 38.5893 28.8337 38.9125 28.7525 39.2164C28.6617 39.5555 28.3577 39.7915 28.0098 39.7928ZM28.0098 38.4535C27.9123 38.4543 27.8167 38.4801 27.7318 38.5285C27.6033 38.6029 27.51 38.7265 27.4729 38.8714C27.4137 39.0914 27.492 39.3258 27.6713 39.4644C27.8505 39.6031 28.095 39.6186 28.2899 39.5035C28.4184 39.4291 28.5118 39.3055 28.5488 39.1607C28.5938 38.9917 28.5581 38.8112 28.4524 38.6725C28.3468 38.5338 28.1831 38.4529 28.0098 38.4535ZM20.967 39.66C20.6037 39.661 20.2606 39.4912 20.0389 39.2006C19.8173 38.9099 19.7422 38.5315 19.8361 38.1771C19.915 37.8741 20.1116 37.6161 20.3814 37.4614C20.9389 37.1372 21.651 37.3287 21.975 37.8899C22.1832 38.2542 22.1835 38.7028 21.9757 39.0673C21.7679 39.4318 21.3835 39.6568 20.967 39.6578V39.66ZM20.967 37.5171C20.6262 37.5176 20.3114 37.7016 20.1412 37.9999C19.971 38.2981 19.9712 38.6654 20.1416 38.9635C20.3122 39.2621 20.6275 39.4461 20.9689 39.4462C21.3102 39.4463 21.6257 39.2625 21.7964 38.9641C21.9672 38.6656 21.9673 38.2978 21.7967 37.9992C21.6254 37.7013 21.3103 37.5177 20.9692 37.5171H20.967ZM34.2844 39.2314C34.0096 39.2318 33.7555 39.0839 33.6181 38.8435C33.5146 38.6657 33.4863 38.4533 33.5396 38.2542C33.6294 37.9138 33.9346 37.6769 34.2834 37.6767C34.6323 37.6765 34.9377 37.913 35.0279 38.2533C35.1182 38.5936 34.9707 38.9526 34.6685 39.1285C34.5526 39.197 34.4208 39.2332 34.2865 39.2335L34.2844 39.2314ZM34.2844 37.8942C34.0511 37.8953 33.8432 38.0434 33.764 38.2651C33.6848 38.4867 33.7511 38.7348 33.93 38.8861C34.1089 39.0374 34.3623 39.0598 34.5645 38.9421C34.6929 38.8686 34.7863 38.7456 34.8234 38.6014C34.8684 38.4324 34.8327 38.2519 34.7271 38.1132C34.6214 37.9745 34.4577 37.8936 34.2844 37.8942ZM31.4601 38.1085C31.1415 38.1096 30.8621 37.894 30.7794 37.5832C30.6968 37.2725 30.8316 36.9445 31.1079 36.7842C31.4436 36.5885 31.8729 36.7046 32.067 37.0435C32.1615 37.2066 32.1867 37.4013 32.137 37.5835C32.0553 37.8932 31.7775 38.1087 31.4601 38.1085ZM31.214 36.9707C31.1011 37.0357 31.0186 37.1436 30.9847 37.2703C30.9509 37.397 30.9685 37.5321 31.0336 37.6457C31.1322 37.8194 31.3249 37.9161 31.5216 37.8904C31.7184 37.8647 31.8804 37.7218 31.9321 37.5284C31.9838 37.335 31.9149 37.1292 31.7577 37.0071C31.6004 36.885 31.3858 36.8706 31.214 36.9707ZM18.0982 37.3135C17.6806 37.3145 17.2944 37.0897 17.086 36.7242C16.7637 36.1614 16.9536 35.4413 17.5104 35.1149C18.0685 34.7905 18.7813 34.982 19.1061 35.5435C19.3148 35.9078 19.315 36.3569 19.1066 36.7213C18.8981 37.0857 18.5128 37.3099 18.096 37.3092L18.0982 37.3135ZM18.0982 35.1707C17.6663 35.1697 17.2881 35.4627 17.1772 35.8842C17.1094 36.1305 17.1431 36.3941 17.2706 36.6149C17.5357 37.076 18.1199 37.234 18.5777 36.9685C18.797 36.8412 18.9568 36.6305 19.0212 36.3835C19.0894 36.137 19.0549 35.873 18.9257 35.6528C18.7538 35.3547 18.4376 35.1718 18.096 35.1728L18.0982 35.1707ZM11.8702 37.1999C11.3812 37.2005 10.929 36.9374 10.6841 36.5099C10.5028 36.1932 10.4538 35.8166 10.5477 35.4633C10.6416 35.11 10.8709 34.8089 11.1849 34.6264C11.8412 34.2495 12.6758 34.4806 13.05 35.1428C13.294 35.5695 13.2942 36.0953 13.0504 36.5221C12.8067 36.949 12.3561 37.2122 11.8681 37.2128L11.8702 37.1999ZM11.8702 34.6564C11.6685 34.6563 11.4703 34.7095 11.2952 34.8107C10.7436 35.1327 10.5538 35.8446 10.8708 36.4028C11.1503 36.894 11.7389 37.1112 12.2661 36.9176C12.7933 36.7241 13.1064 36.1758 13.0082 35.6181C12.9101 35.0603 12.4291 34.6546 11.8681 34.6564H11.8702ZM22.0959 35.6807C21.3022 35.6851 20.596 35.1725 20.347 34.4114C20.0981 33.6503 20.3631 32.8138 21.0032 32.3399C21.6434 31.866 22.513 31.8626 23.1569 32.3314C23.9711 32.927 24.1602 34.0727 23.5813 34.9028C23.2991 35.3006 22.8714 35.5683 22.393 35.6464C22.2931 35.6673 22.1916 35.6795 22.0896 35.6828L22.0959 35.6807ZM22.0959 32.1985C22.0078 32.1982 21.9198 32.2054 21.8328 32.2199C20.9757 32.3615 20.3819 33.1607 20.4869 34.0313C20.592 34.9019 21.3586 35.5337 22.2242 35.4632C23.0899 35.3927 23.7463 34.645 23.7119 33.7687C23.6774 32.8923 22.9644 32.1995 22.0959 32.1985ZM34.0574 35.6699C33.7059 35.6696 33.4093 35.4062 33.3638 35.0543C33.3183 34.7024 33.5382 34.371 33.8777 34.2795C34.2173 34.1881 34.5713 34.365 34.7054 34.693C34.8395 35.021 34.712 35.3986 34.4075 35.5757C34.2994 35.6395 34.1762 35.6728 34.051 35.6721L34.0574 35.6699ZM34.0574 34.4657C33.8346 34.4658 33.6397 34.6169 33.582 34.8342C33.5329 35.0278 33.6032 35.2322 33.7606 35.3533C33.918 35.4743 34.1318 35.4885 34.3035 35.3892C34.4166 35.3238 34.4991 35.2154 34.5325 35.0882C34.566 34.961 34.5477 34.8256 34.4818 34.7121C34.3922 34.5572 34.2264 34.4636 34.0489 34.4678L34.0574 34.4657ZM37.2254 35.5157C36.9506 35.516 36.6965 35.3681 36.5591 35.1278C36.4556 34.95 36.4273 34.7376 36.4806 34.5385C36.5705 34.1981 36.8756 33.9612 37.2244 33.961C37.5733 33.9608 37.8787 34.1973 37.969 34.5376C38.0592 34.8779 37.9118 35.2369 37.6095 35.4128C37.4905 35.4831 37.3548 35.5194 37.2169 35.5178L37.2254 35.5157ZM37.2254 34.1785C36.9921 34.1796 36.7842 34.3277 36.705 34.5494C36.6258 34.771 36.6921 35.0191 36.871 35.1704C37.0499 35.3217 37.3033 35.344 37.5055 35.2264C37.6348 35.1534 37.7298 35.0314 37.7697 34.8874C37.8095 34.7434 37.7908 34.5893 37.7177 34.4592C37.6141 34.2795 37.4206 34.1723 37.2148 34.1807L37.2254 34.1785ZM26.5839 34.6521C25.739 34.6521 25.0041 34.0679 24.8058 33.2385C24.6075 32.4092 24.9974 31.5507 25.7491 31.1613C26.5008 30.772 27.4188 30.9532 27.97 31.5998C28.5212 32.2463 28.5622 33.19 28.0692 33.8828C27.7888 34.2819 27.3614 34.5505 26.883 34.6285C26.7806 34.6451 26.677 34.6537 26.5732 34.6542L26.5839 34.6521ZM26.5839 31.1721C26.4957 31.1718 26.4077 31.1789 26.3207 31.1935C25.8976 31.2621 25.5193 31.499 25.2704 31.8514C24.8851 32.3887 24.8595 33.1079 25.2057 33.6718C25.5519 34.2356 26.2012 34.5324 26.8491 34.4228C27.2715 34.3537 27.6489 34.1168 27.8973 33.7649C28.2501 33.2671 28.2979 32.6121 28.0213 32.0674C27.7447 31.5227 27.19 31.1797 26.5839 31.1785V31.1721ZM16.1035 34.2857C15.7195 34.2877 15.3565 34.1085 15.1221 33.8012C14.8877 33.4939 14.8089 33.0937 14.9089 32.7192C15.0539 32.1755 15.5424 31.7978 16.1 31.7981C16.6576 31.7984 17.1456 32.1767 17.2901 32.7206C17.4345 33.2645 17.1994 33.8386 16.7168 34.1207C16.5301 34.2287 16.3187 34.2855 16.1035 34.2857ZM16.1035 32.0099C15.7388 32.0102 15.4018 32.2069 15.2197 32.5261C15.0376 32.8453 15.038 33.2383 15.2208 33.5571C15.5027 34.0506 16.1273 34.2199 16.616 33.9353C17.1047 33.6507 17.2724 33.0199 16.9905 32.5264C16.8052 32.2076 16.4653 32.0131 16.0993 32.0164L16.1035 32.0099ZM30.8914 33.0364C30.537 33.0363 30.1916 32.923 29.9047 32.7128C29.1432 32.1612 28.9684 31.0907 29.5143 30.3214C30.0617 29.5551 31.1199 29.3807 31.8802 29.9314C32.6418 30.483 32.8165 31.5535 32.2707 32.3228C32.0095 32.6921 31.613 32.9405 31.1694 33.0128C31.0763 33.0305 30.9819 33.0405 30.8872 33.0428L30.8914 33.0364ZM30.8914 29.8221C30.8097 29.8221 30.7281 29.8286 30.6474 29.8414C30.2591 29.9044 29.9121 30.1221 29.684 30.4457C29.3317 30.9388 29.3091 31.5979 29.6267 32.1145C29.9443 32.6311 30.5394 32.903 31.1333 32.8028C31.5211 32.7399 31.8679 32.5231 32.0967 32.2007C32.3264 31.8773 32.4194 31.475 32.3554 31.0824C32.2913 30.6898 32.0753 30.3389 31.755 30.1071C31.5028 29.9244 31.1997 29.8269 30.8893 29.8285L30.8914 29.8221ZM36.5337 32.9742C36.2579 32.9783 36.0012 32.8327 35.861 32.5928C35.7582 32.4148 35.7299 32.2027 35.7825 32.0036C35.835 31.8044 35.9641 31.6347 36.1411 31.5321C36.319 31.4267 36.5312 31.3976 36.7305 31.4511C36.9298 31.5046 37.0996 31.6364 37.2021 31.8171C37.3394 32.0573 37.3393 32.3532 37.2018 32.5933C37.0644 32.8333 36.8104 32.981 36.5358 32.9807L36.5337 32.9742ZM36.5337 31.6349C36.4359 31.6357 36.3401 31.6623 36.2557 31.7121C36.039 31.84 35.934 32.0986 35.9995 32.3433C36.065 32.588 36.2847 32.758 36.5357 32.7582C36.7867 32.7585 37.0068 32.5888 37.0727 32.3442C37.1131 32.1998 37.0932 32.0449 37.0175 31.9157C36.9151 31.7427 36.729 31.6381 36.5294 31.6414L36.5337 31.6349ZM10.3276 32.8328C9.63211 32.8337 9.0365 32.3299 8.91535 31.6383C8.7942 30.9468 9.18252 30.2672 9.83609 30.0271C10.4897 29.787 11.2196 30.0557 11.5668 30.6642C11.822 31.1115 11.8218 31.6622 11.5663 32.1093C11.3108 32.5564 10.8388 32.8321 10.3276 32.8328ZM10.3276 30.1564C9.77689 30.1592 9.29657 30.5348 9.15605 31.0725C9.01553 31.6102 9.24978 32.1763 9.72739 32.4531C10.205 32.73 10.8071 32.6487 11.1961 32.255C11.585 31.8613 11.6639 31.253 11.3886 30.7714C11.1688 30.3879 10.7621 30.153 10.3233 30.1564H10.3276ZM14.8537 30.8571C14.325 30.8595 13.861 30.5021 13.7236 29.9865C13.5861 29.471 13.8097 28.9267 14.268 28.6607C14.6298 28.434 15.085 28.4242 15.456 28.6352C15.8269 28.8461 16.0547 29.2443 16.0504 29.6741C16.046 30.104 15.8102 30.4974 15.4351 30.7007C15.2584 30.8038 15.0578 30.8578 14.8537 30.8571ZM14.3741 28.8449C13.9176 29.1113 13.7612 29.7008 14.0248 30.162C14.2883 30.6231 14.8721 30.7812 15.3288 30.5153C15.7855 30.2493 15.9424 29.6598 15.6791 29.1985C15.5538 28.9754 15.3452 28.8124 15.0999 28.746C14.8546 28.6795 14.5932 28.7152 14.3741 28.8449ZM35.0122 30.7907C34.6853 30.7909 34.3666 30.6866 34.1019 30.4928C33.4031 29.9834 33.2451 28.9986 33.7487 28.2924C34.2524 27.5861 35.2273 27.4254 35.9273 27.9332C36.6272 28.441 36.7875 29.4254 36.2854 30.1328C36.0455 30.4759 35.6794 30.7074 35.269 30.7757C35.184 30.7882 35.0981 30.7932 35.0122 30.7907ZM35.0122 27.8442C34.9411 27.8447 34.8701 27.8512 34.8 27.8635C34.4462 27.9199 34.1296 28.1176 33.9216 28.4121C33.4888 29.0263 33.6281 29.8781 34.2335 30.3192C34.839 30.7579 35.6819 30.6189 36.1178 30.0085C36.4135 29.5924 36.4541 29.0443 36.223 28.5884C35.9919 28.1325 35.5279 27.8453 35.0207 27.8442H35.0122ZM21.7055 30.5485C21.4058 30.5483 21.1139 30.4523 20.8716 30.2742C20.2311 29.808 20.0841 28.9068 20.5427 28.2578C20.764 27.9465 21.0988 27.7369 21.4733 27.675C21.8478 27.6131 22.2313 27.704 22.5394 27.9278C23.0439 28.2942 23.2569 28.9472 23.0668 29.5446C22.8767 30.142 22.3268 30.5475 21.7055 30.5485ZM21.7055 27.8699C21.6387 27.8697 21.572 27.8747 21.506 27.8849C20.8479 27.9888 20.3882 28.5987 20.4645 29.2669C20.5407 29.9352 21.1256 30.4236 21.7898 30.3736C22.4541 30.3236 22.9609 29.7532 22.9383 29.0809C22.9156 28.4086 22.3716 27.8742 21.7055 27.8699ZM25.2789 29.8328C24.9664 29.8326 24.6619 29.7328 24.4089 29.5478C23.9745 29.2332 23.7393 28.7084 23.7919 28.1712C23.8446 27.6339 24.177 27.1659 24.6641 26.9433C25.1511 26.7207 25.7187 26.7774 26.1531 27.0921C26.6452 27.4498 26.8753 28.0718 26.7359 28.6678C26.5965 29.2637 26.1151 29.716 25.5165 29.8135C25.4351 29.8263 25.3528 29.8328 25.2704 29.8328H25.2789ZM25.2789 27.0213C25.2078 27.0218 25.1369 27.0276 25.0667 27.0385C24.4602 27.1387 24.0082 27.6575 23.9872 28.2778C23.9662 28.898 24.3821 29.4468 24.9804 29.5885C25.5787 29.7302 26.1928 29.4253 26.4471 28.8603C26.7014 28.2953 26.525 27.6277 26.0258 27.2657C25.8067 27.1055 25.5429 27.0199 25.2725 27.0213H25.2789ZM9.72283 28.6842C8.96359 28.6848 8.31363 28.1346 8.18161 27.3796C8.04959 26.6245 8.47367 25.8828 9.18719 25.6208C9.90071 25.3587 10.6975 25.6521 11.0766 26.3164C11.3568 26.8047 11.3573 27.4069 11.0778 27.8957C10.7984 28.3844 10.2817 28.6851 9.72283 28.6842ZM9.72283 25.7399C9.48606 25.7405 9.25352 25.8033 9.04805 25.9221C8.5949 26.1472 8.30346 26.6082 8.29208 27.1181C8.2807 27.6279 8.55126 28.1018 8.99391 28.3472C9.43656 28.5927 9.97771 28.569 10.3976 28.2857C11.0436 27.9086 11.2656 27.0748 10.8941 26.4214C10.6501 25.9962 10.1988 25.7361 9.71222 25.7399H9.72283ZM28.7801 28.4507C28.4944 28.4512 28.2158 28.3604 27.9843 28.1914C27.3703 27.7464 27.2297 26.883 27.6703 26.2628C27.88 25.9648 28.1997 25.7648 28.5573 25.7078C29.1021 25.6177 29.6471 25.8675 29.9386 26.341C30.2301 26.8144 30.2109 27.4185 29.8899 27.8721C29.6797 28.17 29.3603 28.3706 29.0029 28.4292C28.9257 28.4422 28.8477 28.4494 28.7695 28.4507H28.7801ZM28.7801 25.9071C28.2341 25.907 27.7627 26.2932 27.6503 26.8327C27.5378 27.3722 27.815 27.9175 28.3147 28.1397C28.8144 28.3619 29.3998 28.2001 29.718 27.7521C30.0877 27.2281 29.9682 26.5009 29.4506 26.1257C29.2525 25.9812 29.0138 25.9046 28.7695 25.9071H28.7801ZM38.6196 28.3349C37.8525 28.3347 37.2222 27.7234 37.191 26.9494C37.1598 26.1754 37.7389 25.5144 38.5034 25.4512C39.2679 25.388 39.9457 25.9452 40.0395 26.714C40.1333 27.4828 39.6098 28.1895 38.853 28.3157C38.7758 28.3284 38.6978 28.3348 38.6196 28.3349ZM38.6196 25.6564C38.5527 25.6568 38.486 25.6625 38.4201 25.6735C38.1015 25.7255 37.8166 25.9037 37.6286 26.1685C37.3445 26.5736 37.3288 27.1113 37.5888 27.5325C37.8488 27.9538 38.3338 28.1763 38.819 28.0971C39.3062 28.0175 39.6975 27.6483 39.8092 27.1629C39.9208 26.6774 39.7308 26.1719 39.3283 25.8835C39.1219 25.7339 38.8737 25.6543 38.6196 25.6564ZM5.68051 27.2828C5.25628 27.2828 4.91237 26.9355 4.91237 26.5071C4.91237 26.0787 5.25628 25.7314 5.68051 25.7314C6.10475 25.7314 6.44866 26.0787 6.44866 26.5071C6.44866 26.9355 6.10475 27.2828 5.68051 27.2828ZM5.68051 25.9478C5.45546 25.9478 5.25261 26.0848 5.16668 26.2949C5.08076 26.5049 5.12871 26.7466 5.28815 26.907C5.44759 27.0674 5.68707 27.1149 5.89474 27.0273C6.10242 26.9397 6.23732 26.7344 6.23647 26.5071C6.23647 26.3584 6.17782 26.2158 6.0735 26.1109C5.96918 26.0059 5.82776 25.9472 5.68051 25.9478ZM14.3126 27.2764C13.7292 27.2756 13.211 26.8998 13.024 26.3417C12.8369 25.7836 13.0226 25.1672 13.4856 24.8088C13.9487 24.4504 14.5863 24.4295 15.0714 24.7569C15.5564 25.0843 15.7812 25.6872 15.6303 26.2564C15.5373 26.6097 15.3081 26.9107 14.9938 27.0921C14.7871 27.2139 14.5519 27.2775 14.3126 27.2764ZM14.3126 24.7349C13.9003 24.7341 13.5191 24.9558 13.3128 25.3163C13.1065 25.6768 13.1067 26.121 13.3132 26.4814C13.6321 27.0384 14.3371 27.2301 14.8898 26.9099C15.3436 26.647 15.5651 26.1083 15.4291 25.5981C15.293 25.088 14.8337 24.7344 14.3105 24.7371L14.3126 24.7349ZM32.0245 26.8607C31.7393 26.8601 31.4616 26.7686 31.2309 26.5992C30.8229 26.3172 30.5979 25.8342 30.6429 25.3369C30.6879 24.8397 30.9958 24.4059 31.4476 24.2031C31.8995 24.0004 32.4247 24.0604 32.8203 24.3599C33.27 24.6833 33.4825 25.2486 33.3584 25.7919C33.2344 26.3352 32.7983 26.7495 32.2537 26.8414C32.1766 26.8547 32.0985 26.8611 32.0203 26.8607H32.0245ZM32.0245 24.3149C31.9613 24.3156 31.8982 24.3206 31.8357 24.3299C31.3748 24.4058 31.0049 24.755 30.8988 25.2142C30.7928 25.6734 30.9717 26.1518 31.3519 26.4257C31.6857 26.681 32.1303 26.7333 32.5133 26.5624C32.8963 26.3915 33.1574 26.0242 33.1951 25.6031C33.2329 25.1819 33.0414 24.7733 32.6951 24.5357C32.4998 24.3916 32.2642 24.3143 32.0224 24.3149H32.0245ZM3.166 26.6142C2.74177 26.613 2.39881 26.2648 2.39998 25.8364C2.40115 25.408 2.74601 25.0616 3.17025 25.0628C3.59448 25.064 3.93744 25.4122 3.93627 25.8407C3.93573 26.0483 3.8528 26.247 3.70605 26.3924C3.55929 26.5378 3.36095 26.6177 3.15539 26.6142H3.166ZM3.166 25.2792C2.85924 25.2804 2.61139 25.5323 2.61217 25.8421C2.61295 26.1519 2.86206 26.4025 3.16883 26.4021C3.47559 26.4017 3.72407 26.1504 3.72407 25.8407C3.72241 25.6906 3.66135 25.5475 3.5545 25.4432C3.44766 25.339 3.30393 25.2822 3.15539 25.2857L3.166 25.2792ZM41.9829 25.0264C41.6979 25.0266 41.4201 24.9358 41.1892 24.7671C40.5752 24.3221 40.4346 23.4587 40.8752 22.8385C41.0844 22.54 41.4044 22.3398 41.7622 22.2835C42.1191 22.2231 42.4852 22.3095 42.7786 22.5235C43.0739 22.7369 43.273 23.0601 43.332 23.422C43.3909 23.7838 43.3048 24.1545 43.0926 24.4521C42.8833 24.7498 42.5646 24.9505 42.2078 25.0092C42.1298 25.0207 42.0511 25.0264 41.9722 25.0264H41.9829ZM41.9829 22.4828C41.9196 22.4824 41.8564 22.4874 41.794 22.4978C41.1818 22.6191 40.7758 23.2098 40.8773 23.8314C40.9789 24.4531 41.5512 24.8808 42.1696 24.7971C42.4717 24.7489 42.7417 24.5797 42.9186 24.3278C43.2888 23.8044 43.1702 23.0773 42.6534 22.7014C42.4557 22.5576 42.2179 22.4811 41.9744 22.4828H41.9829ZM35.2053 24.5999C34.9622 24.6029 34.7245 24.5279 34.5263 24.3857C34.0035 24.0061 33.8838 23.2706 34.2589 22.7421C34.6355 22.2148 35.3637 22.095 35.8865 22.4742C36.4083 22.8545 36.5278 23.589 36.1539 24.1178C35.9356 24.4275 35.5817 24.6106 35.2053 24.6086V24.5999ZM35.2053 22.4571C34.7904 22.4562 34.4226 22.7267 34.296 23.1258C34.1695 23.5249 34.3133 23.9608 34.6515 24.2035C35.0775 24.5153 35.6731 24.4194 35.982 23.9892C36.2897 23.5581 36.1949 22.9568 35.7698 22.6435C35.6042 22.5196 35.4029 22.4541 35.1969 22.4571H35.2053ZM9.50851 24.1542C8.8966 24.1598 8.32909 23.8323 8.02315 23.2971C7.63972 22.6264 7.74923 21.7793 8.29032 21.2305C8.83141 20.6817 9.66968 20.5674 10.3355 20.9516C11.0014 21.3358 11.3295 22.1232 11.1359 22.8726C10.9424 23.622 10.2754 24.1473 9.50851 24.1542ZM9.50851 20.9399C8.87853 20.9314 8.31172 21.3251 8.09432 21.9222C7.87692 22.5194 8.05625 23.1901 8.54173 23.5956C9.02722 24.0012 9.71322 24.0533 10.2533 23.7257C10.9633 23.3113 11.2065 22.3943 10.7965 21.6771C10.5249 21.2142 10.0285 20.9338 9.49578 20.9421L9.50851 20.9399ZM4.54951 23.6657C4.2661 23.6657 4.01063 23.4931 3.90237 23.2286C3.79411 22.9641 3.85441 22.6598 4.05512 22.4577C4.25583 22.2557 4.55736 22.1957 4.81896 22.3058C5.08055 22.4159 5.25062 22.6745 5.24976 22.9607C5.24976 23.148 5.17591 23.3277 5.04453 23.4599C4.91315 23.5922 4.73503 23.6662 4.54951 23.6657ZM4.54951 22.4678C4.27997 22.4678 4.06146 22.6885 4.06146 22.9607C4.06146 23.2329 4.27997 23.4535 4.54951 23.4535C4.81905 23.4535 5.03756 23.2329 5.03756 22.9607C5.03756 22.6885 4.81905 22.4678 4.54951 22.4678ZM14.2171 23.625C13.5298 23.6269 12.9476 23.1137 12.8567 22.4256C12.7658 21.7376 13.1943 21.0882 13.8581 20.908C14.5219 20.7279 15.2151 21.0729 15.4779 21.7142C15.7408 22.3556 15.4919 23.0944 14.8961 23.4407C14.6896 23.5608 14.4555 23.6243 14.2171 23.625ZM14.2171 21.0814C14.015 21.0805 13.8164 21.1345 13.6421 21.2378C13.3768 21.3917 13.1831 21.6457 13.1035 21.9439C13.0238 22.2422 13.0649 22.5602 13.2177 22.8278C13.497 23.3188 14.0853 23.536 14.6123 23.3429C15.1394 23.1498 15.4528 22.6021 15.3554 22.0445C15.2579 21.4869 14.7778 21.0807 14.2171 21.0814ZM1.43024 22.1914C1.1186 22.1905 0.838393 21.9995 0.720954 21.708C0.603515 21.4165 0.672125 21.0822 0.894624 20.8618C1.11712 20.6415 1.44941 20.5787 1.73574 20.703C2.02206 20.8272 2.20568 21.1138 2.20051 21.4285C2.19355 21.8527 1.85038 22.1926 1.43024 22.1914ZM1.43024 20.8564C1.12487 20.8576 0.877649 21.1073 0.876512 21.4157C0.875391 21.7241 1.12078 21.9757 1.42613 21.9792C1.73149 21.9827 1.98249 21.7368 1.98832 21.4285C1.99117 21.2774 1.93357 21.1315 1.82854 21.0238C1.72351 20.9161 1.57992 20.8558 1.43024 20.8564ZM37.7156 22.1421C37.458 22.1415 37.207 22.0591 36.9984 21.9064C36.4462 21.5046 36.32 20.7274 36.7162 20.1685C36.9065 19.9002 37.1948 19.7195 37.5174 19.6665C37.8399 19.6134 38.1701 19.6923 38.4349 19.8857C38.8415 20.1778 39.0331 20.689 38.9201 21.1798C38.8071 21.6706 38.4118 22.0439 37.9193 22.1249C37.8554 22.1347 37.7909 22.1397 37.7262 22.1399L37.7156 22.1421ZM37.1342 21.7307C37.3535 21.8904 37.6267 21.9554 37.8935 21.9111C38.1604 21.8669 38.3987 21.7171 38.5559 21.4949C38.797 21.1559 38.8118 20.7034 38.5934 20.349C38.3749 19.9946 37.9663 19.8082 37.5586 19.8771C37.2918 19.9194 37.0531 20.0685 36.8965 20.2907C36.5683 20.7541 36.6737 21.3984 37.1321 21.7307H37.1342ZM44.3658 21.0149C44.0944 21.0162 43.8298 20.9299 43.6104 20.7685C43.0292 20.3445 42.8956 19.5264 43.3112 18.9364C43.7323 18.3515 44.5422 18.2203 45.1233 18.6428C45.7043 19.066 45.8379 19.8835 45.4225 20.4728C45.2227 20.7585 44.9162 20.9496 44.5738 21.0021C44.5049 21.0124 44.4354 21.0167 44.3658 21.0149ZM44.3658 18.6042C44.3061 18.605 44.2466 18.61 44.1876 18.6192C43.9022 18.667 43.6485 18.8303 43.4852 19.0714C43.1356 19.5639 43.2467 20.2492 43.7335 20.6035C44.2215 20.9553 44.8991 20.8433 45.2507 20.3528C45.4867 20.0178 45.5183 19.5779 45.3327 19.212C45.1471 18.8461 44.7751 18.615 44.3679 18.6128L44.3658 18.6042ZM3.7559 20.1878C3.47249 20.1878 3.21702 20.0153 3.10876 19.7508C3.0005 19.4863 3.0608 19.1819 3.26151 18.9799C3.46222 18.7778 3.76375 18.7178 4.02535 18.828C4.28694 18.9381 4.45701 19.1966 4.45615 19.4828C4.45267 19.8715 4.14085 20.1855 3.7559 20.1878ZM3.7559 18.9899C3.48636 18.9899 3.26785 19.2106 3.26785 19.4828C3.26785 19.755 3.48636 19.9757 3.7559 19.9757C4.02544 19.9757 4.24395 19.755 4.24395 19.4828C4.24165 19.2116 4.02448 18.9923 3.7559 18.9899ZM14.5269 20.0207C13.7998 20.0211 13.1774 19.4942 13.0508 18.7711C12.9243 18.048 13.3302 17.3376 14.0134 17.0863C14.6966 16.835 15.4599 17.1155 15.8234 17.7514C16.091 18.2193 16.0911 18.7958 15.8237 19.2638C15.5563 19.7319 15.062 20.0203 14.5269 20.0207ZM14.5269 17.2092C14.0665 17.207 13.6402 17.4539 13.4096 17.8563C13.179 18.2588 13.1794 18.7551 13.4108 19.1571C13.7673 19.7778 14.5538 19.9905 15.1699 19.6328C15.6733 19.3397 15.9196 18.7421 15.7706 18.1749C15.6216 17.6076 15.1144 17.2118 14.5333 17.2092H14.5269ZM9.94139 19.7014C9.05406 19.7013 8.29475 19.0581 8.14032 18.1757C7.98589 17.2933 8.48088 16.4262 9.31444 16.119C10.148 15.8118 11.0797 16.1531 11.5244 16.9285C11.8513 17.4995 11.8516 18.2034 11.5249 18.7746C11.1983 19.3459 10.5946 19.6976 9.94139 19.6971V19.7014ZM9.94139 16.2213C9.65796 16.22 9.37916 16.2939 9.13293 16.4357C8.42558 16.8422 8.12636 17.7153 8.43356 18.4764C8.74076 19.2376 9.55916 19.6507 10.3464 19.442C11.1336 19.2334 11.6456 18.4676 11.5431 17.6523C11.4405 16.8369 10.7553 16.2247 9.94139 16.2213ZM39.6805 18.9664C39.4382 18.9686 39.2013 18.8936 39.0036 18.7521C38.4801 18.3732 38.3595 17.6376 38.7341 17.1085C39.1107 16.5812 39.8389 16.4614 40.3617 16.8407C40.7828 17.1357 40.9634 17.674 40.8068 18.1668C40.6501 18.6596 40.193 18.9911 39.6805 18.9835V18.9664ZM39.6805 16.8235C39.6279 16.8235 39.5754 16.8278 39.5235 16.8364C39.1423 16.8992 38.8363 17.1882 38.7489 17.5682C38.6614 17.9481 38.8098 18.3438 39.1246 18.5699C39.5506 18.8817 40.1462 18.7858 40.455 18.3557C40.7628 17.9245 40.668 17.3233 40.2429 17.0099C40.0802 16.8881 39.883 16.8227 39.6805 16.8235ZM31.1439 18.0449C30.354 18.0438 29.7147 17.3962 29.7159 16.5985C29.717 15.8009 30.3583 15.1552 31.1482 15.1564C31.938 15.1576 32.5774 15.8051 32.5762 16.6028C32.5751 17.3971 31.939 18.0414 31.1524 18.0449H31.1439ZM31.1439 15.3728C30.4715 15.374 29.9273 15.9252 29.928 16.6042C29.9288 17.2833 30.4743 17.8332 31.1468 17.8328C31.8192 17.8324 32.364 17.2818 32.364 16.6028C32.3629 15.9265 31.8221 15.3775 31.1524 15.3728H31.1439ZM0.84883 17.9185C0.510679 17.9185 0.205826 17.7128 0.0764212 17.3973C-0.0529833 17.0818 0.0185455 16.7187 0.257654 16.4772C0.496762 16.2358 0.856362 16.1635 1.16877 16.2942C1.48118 16.4249 1.68488 16.7327 1.68488 17.0742C1.68488 17.5405 1.31057 17.9185 0.84883 17.9185ZM0.84883 16.4442C0.504285 16.4442 0.224976 16.7263 0.224976 17.0742C0.224976 17.4222 0.504285 17.7042 0.84883 17.7042C1.19337 17.7042 1.47268 17.4222 1.47268 17.0742C1.47152 16.7268 1.19289 16.4454 0.84883 16.4442ZM45.4777 16.5749C44.9399 16.574 44.4726 16.2015 44.3469 15.6735C44.2212 15.1454 44.4698 14.5991 44.9485 14.3515C45.4271 14.1039 46.0114 14.2193 46.3623 14.6308C46.7133 15.0423 46.7397 15.6429 46.4262 16.0842C46.2047 16.3901 45.8529 16.5721 45.4777 16.5749ZM45.4777 14.4321C45.4258 14.4321 45.374 14.4364 45.3228 14.4449C45.0731 14.485 44.8498 14.6248 44.7032 14.8328C44.4756 15.1484 44.4588 15.5714 44.6608 15.9043C44.8628 16.2372 45.2436 16.4143 45.6254 16.3528C46.0072 16.2913 46.3146 16.0034 46.404 15.6236C46.4934 15.2437 46.3472 14.8469 46.0337 14.6185C45.8698 14.496 45.671 14.4305 45.4671 14.4321H45.4777ZM4.09966 16.4442C3.78621 16.4442 3.50366 16.2534 3.3839 15.9609C3.26415 15.6684 3.3308 15.3318 3.55275 15.1083C3.7747 14.8847 4.10818 14.8184 4.39752 14.9401C4.68687 15.0618 4.87503 15.3477 4.87418 15.6642C4.87363 15.8735 4.79004 16.0739 4.64208 16.2205C4.49413 16.3671 4.29417 16.4477 4.08693 16.4442H4.09966ZM4.09966 15.0964C3.87222 15.0964 3.66718 15.2347 3.58015 15.4469C3.49311 15.6591 3.54122 15.9034 3.70204 16.0658C3.86286 16.2282 4.10472 16.2768 4.31485 16.1889C4.52497 16.101 4.66198 15.8939 4.66198 15.6642C4.66201 15.5114 4.60103 15.365 4.4928 15.2581C4.38458 15.1512 4.23826 15.0929 4.08693 15.0964H4.09966ZM15.3078 16.3392C14.6121 16.3412 14.0156 15.8379 13.8937 15.1462C13.7718 14.4544 14.1598 13.7743 14.8135 13.5338C15.4672 13.2932 16.1975 13.5619 16.5449 14.1707C16.7374 14.5018 16.7894 14.8974 16.6892 15.2678C16.5214 15.8991 15.9551 16.3383 15.3078 16.3392ZM15.3078 13.6607C14.756 13.6623 14.2741 14.0378 14.1323 14.5763C13.9906 15.1148 14.2244 15.6824 14.7025 15.9605C15.1806 16.2386 15.7841 16.1581 16.1743 15.764C16.5644 15.37 16.6442 14.7606 16.3688 14.2778C16.1483 13.8884 15.7349 13.6517 15.2908 13.6607H15.3078ZM28.4342 15.6428C27.6071 15.6416 26.9374 14.9638 26.9382 14.1285C26.939 13.2933 27.6099 12.6167 28.437 12.6171C29.2641 12.6175 29.9344 13.2947 29.9344 14.1299C29.9332 14.9658 29.2619 15.6428 28.4342 15.6428ZM28.4342 12.8335C27.724 12.8347 27.1492 13.417 27.1504 14.1342C27.1516 14.8514 27.7283 15.4318 28.4384 15.4307C29.1486 15.4295 29.7234 14.8471 29.7222 14.1299C29.7222 13.4116 29.1455 12.8292 28.4342 12.8292V12.8335ZM34.7406 15.3771C33.9989 15.378 33.3298 14.9274 33.0453 14.2357C32.7609 13.5439 32.9172 12.7472 33.4414 12.2173C33.9655 11.6873 34.7543 11.5285 35.4396 11.815C36.125 12.1014 36.5719 12.7766 36.5719 13.5257C36.5695 14.5457 35.7507 15.3716 34.7406 15.3728V15.3771ZM34.7406 11.8885C34.0847 11.8876 33.493 12.286 33.2414 12.8977C32.9898 13.5094 33.1279 14.2139 33.5914 14.6825C34.0549 15.1512 34.7524 15.2917 35.3584 15.0384C35.9645 14.7851 36.3597 14.188 36.3597 13.5257C36.3608 13.0911 36.1908 12.6739 35.8871 12.366C35.5834 12.0581 35.171 11.8848 34.7406 11.8842V11.8885ZM40.6184 15.3642C40.3754 15.3668 40.1378 15.2918 39.9394 15.1499C39.4178 14.7701 39.2997 14.0352 39.6755 13.5082C40.0513 12.9812 40.7789 12.8615 41.301 13.2407C41.8231 13.6199 41.9421 14.3546 41.5669 14.8821C41.3454 15.188 40.9937 15.3699 40.6184 15.3728V15.3642ZM40.6184 13.2214C40.5658 13.2215 40.5133 13.2258 40.4614 13.2342C40.2123 13.2744 39.9897 13.4142 39.8439 13.6221C39.6199 13.9395 39.6067 14.3617 39.8103 14.6928C40.0138 15.0239 40.3944 15.1991 40.7755 15.1371C41.2663 15.0553 41.6127 14.6067 41.5717 14.1061C41.5306 13.6055 41.1159 13.2205 40.6184 13.2214ZM10.8602 15.1499C9.9724 15.1505 9.21241 14.5071 9.0579 13.6243C8.90339 12.7414 9.39897 11.874 10.2332 11.5672C11.0674 11.2604 11.9993 11.6028 12.4432 12.3792C12.7698 12.9506 12.7699 13.6545 12.4434 14.2259C12.117 14.7973 11.5135 15.1496 10.8602 15.1499ZM10.8602 11.6699C10.2825 11.6699 9.74864 11.9811 9.45975 12.4863C9.17087 12.9915 9.17085 13.614 9.45971 14.1192C9.90771 14.8999 10.8972 15.1665 11.6708 14.7149C12.043 14.4992 12.3149 14.1427 12.4264 13.7241C12.5379 13.3056 12.4798 12.8594 12.2649 12.4842C11.9739 11.977 11.4365 11.6656 10.856 11.6678L10.8602 11.6699ZM1.23078 13.4999C0.696662 13.4988 0.264514 13.0608 0.265292 12.5214C0.266074 11.982 0.699489 11.5453 1.23361 11.5457C1.76773 11.5461 2.20051 11.9834 2.20051 12.5228C2.20051 12.7823 2.09828 13.0312 1.91636 13.2145C1.73443 13.3978 1.48777 13.5005 1.23078 13.4999ZM1.23078 11.7621C0.813579 11.7633 0.476322 12.1058 0.477488 12.5271C0.478667 12.9484 0.817825 13.289 1.23503 13.2878C1.65223 13.2866 1.98949 12.9441 1.98832 12.5228C1.98888 12.3197 1.90925 12.1248 1.76706 11.9812C1.62488 11.8376 1.43186 11.7572 1.23078 11.7578V11.7621ZM25.3849 13.3628C24.8319 13.3645 24.3323 13.0294 24.1194 12.5139C23.9066 11.9984 24.0224 11.4041 24.4129 11.0085C24.8034 10.613 25.3915 10.4941 25.9027 10.7074C26.4138 10.9208 26.7472 11.4243 26.7472 11.9828C26.7449 12.7416 26.1364 13.3562 25.3849 13.3585V13.3628ZM25.3849 10.8171C24.9177 10.8154 24.4955 11.0983 24.3155 11.5337C24.1354 11.9692 24.2332 12.4713 24.563 12.8056C24.8928 13.1398 25.3896 13.2404 25.8215 13.0602C26.2533 12.88 26.5351 12.4547 26.5351 11.9828C26.5362 11.6736 26.4156 11.3767 26.2 11.1573C25.9843 10.9378 25.6911 10.8139 25.3849 10.8128V10.8171ZM5.48105 13.3585C4.94665 13.3585 4.51344 12.921 4.51344 12.3814C4.51344 11.8417 4.94665 11.4042 5.48105 11.4042C6.01545 11.4042 6.44866 11.8417 6.44866 12.3814C6.44749 12.9205 6.01496 13.3573 5.48105 13.3585ZM5.48105 11.6185C5.06385 11.6185 4.72563 11.9601 4.72563 12.3814C4.72563 12.8027 5.06385 13.1442 5.48105 13.1442C5.89825 13.1442 6.23646 12.8027 6.23646 12.3814C6.2353 11.9605 5.89777 11.6197 5.48105 11.6185ZM31.2903 12.2871C30.2804 12.2859 29.4626 11.4584 29.4633 10.4385C29.4641 9.41865 30.2832 8.59241 31.2932 8.5928C32.3031 8.5932 33.1216 9.42007 33.1216 10.4399C33.1192 11.46 32.3004 12.2859 31.2903 12.2871ZM31.2903 8.80923C30.3973 8.81041 29.6744 9.54243 29.6755 10.4442C29.6767 11.346 30.4016 12.0761 31.2946 12.0749C32.1876 12.0738 32.9106 11.3417 32.9094 10.4399C32.9088 10.0069 32.7379 9.59179 32.4343 9.28597C32.1307 8.98015 31.7192 8.80866 31.2903 8.80923ZM44.735 12.0899C44.115 12.0866 43.6079 11.5901 43.5854 10.9643C43.563 10.3386 44.0333 9.80632 44.6515 9.75776C45.2697 9.70921 45.8158 10.1616 45.8894 10.7834C45.9631 11.4051 45.5381 11.9749 44.926 12.0749C44.8627 12.0842 44.7989 12.0892 44.735 12.0899ZM44.735 9.94708C44.3201 9.94623 43.9523 10.2167 43.8257 10.6158C43.6992 11.0149 43.8429 11.4508 44.1812 11.6935C44.386 11.8442 44.6422 11.9052 44.892 11.8628C45.2733 11.8 45.5793 11.511 45.6667 11.131C45.7541 10.751 45.6057 10.3554 45.291 10.1292C45.1295 10.0104 44.9348 9.9466 44.735 9.94708ZM22.2041 11.6185C21.4497 11.6173 20.839 10.999 20.8397 10.2371C20.8405 9.47521 21.4525 8.85812 22.207 8.85852C22.9614 8.85891 23.5728 9.47664 23.5728 10.2385C23.5716 11.001 22.9592 11.6185 22.2041 11.6185ZM22.2041 9.0728C21.5669 9.07398 21.0511 9.59641 21.0519 10.2399C21.0527 10.8835 21.5697 11.4046 22.207 11.4042C22.8442 11.4038 23.3606 10.882 23.3606 10.2385C23.3594 9.59436 22.842 9.0728 22.2041 9.0728ZM40.0285 11.5135C39.8265 11.5136 39.6297 11.449 39.4662 11.3292C39.0355 11.0121 38.9408 10.4024 39.2547 9.96727C39.5686 9.53216 40.1723 9.4363 40.6033 9.75314C41.0342 10.07 41.1294 10.6796 40.8158 11.1149C40.6646 11.327 40.4351 11.4684 40.1792 11.5071C40.1271 11.5134 40.0746 11.5155 40.0222 11.5135H40.0285ZM40.0285 9.77351C39.9869 9.77034 39.945 9.77034 39.9033 9.77351C39.7061 9.80576 39.5297 9.91603 39.4132 10.0799C39.1719 10.4222 39.25 10.897 39.5879 11.142C39.9258 11.3871 40.3963 11.3101 40.6404 10.9699C40.8844 10.6296 40.8101 10.1542 40.4741 9.90637C40.3421 9.81463 40.1845 9.76806 40.0243 9.77351H40.0285ZM8.06346 10.9499C7.41891 10.9488 6.89734 10.4201 6.89851 9.76923C6.89969 9.11833 7.42315 8.59162 8.06771 8.5928C8.71226 8.59399 9.23383 9.12261 9.23266 9.77351C9.2321 10.0861 9.1086 10.3856 8.88933 10.6063C8.67006 10.8269 8.37299 10.9505 8.06346 10.9499ZM8.06346 8.80709C7.53638 8.80827 7.10993 9.24052 7.11071 9.7728C7.11149 10.3051 7.5392 10.736 8.06629 10.7357C8.59338 10.7353 9.02046 10.3037 9.02046 9.77137C9.01813 9.2393 8.59035 8.80922 8.06346 8.80923V8.80709ZM18.6732 10.0157C18.0289 10.0145 17.5075 9.48629 17.5083 8.83566C17.509 8.18503 18.0318 7.65812 18.676 7.65852C19.3203 7.65891 19.8424 8.18646 19.8424 8.83709C19.8424 9.48918 19.3189 10.0178 18.6732 10.0178V10.0157ZM18.6732 7.8728C18.1461 7.87398 17.7197 8.30623 17.7205 8.83851C17.7212 9.37079 18.149 9.80176 18.676 9.80137C19.2031 9.80098 19.6302 9.36937 19.6302 8.83709C19.6279 8.30502 19.2001 7.87494 18.6732 7.87494V7.8728ZM11.518 9.61494C10.8734 9.61494 10.3509 9.08728 10.3509 8.43637C10.3509 7.78547 10.8734 7.2578 11.518 7.2578C12.1626 7.2578 12.6851 7.78547 12.6851 8.43637C12.6839 9.08679 12.1621 9.61376 11.518 9.61494ZM11.518 7.47209C10.9906 7.47209 10.5631 7.90381 10.5631 8.43637C10.5631 8.96893 10.9906 9.40066 11.518 9.40066C12.0454 9.40066 12.4729 8.96893 12.4729 8.43637C12.4717 7.9043 12.0449 7.47327 11.518 7.47209ZM27.5727 9.47566C26.6351 9.47566 25.8751 8.70815 25.8751 7.76137C25.8751 6.8146 26.6351 6.04709 27.5727 6.04709C28.5102 6.04709 29.2702 6.8146 29.2702 7.76137C29.2702 8.70815 28.5102 9.47566 27.5727 9.47566ZM27.5727 6.26137C26.7523 6.26137 26.0873 6.93295 26.0873 7.76137C26.0873 8.5898 26.7523 9.26137 27.5727 9.26137C28.393 9.26137 29.058 8.5898 29.058 7.76137C29.0569 6.93378 28.3922 6.26351 27.5727 6.26352V6.26137ZM15.1678 9.47566C14.4895 9.47447 13.9405 8.91847 13.9413 8.23352C13.942 7.54857 14.4923 6.99384 15.1706 6.99423C15.8489 6.99463 16.3985 7.55 16.3985 8.23494C16.3962 8.92003 15.8462 9.47448 15.1678 9.47566ZM15.1678 7.20852C14.6067 7.2097 14.1527 7.66977 14.1535 8.23637C14.1542 8.80297 14.6095 9.26176 15.1706 9.26137C15.7317 9.26098 16.1863 8.80155 16.1863 8.23494C16.184 7.66821 15.729 7.20969 15.1678 7.20852ZM3.02383 9.47567C2.55141 9.47739 2.12455 9.19135 1.94257 8.75108C1.76059 8.31082 1.85939 7.8032 2.19284 7.46524C2.52628 7.12728 3.02859 7.02566 3.46522 7.20782C3.90185 7.38999 4.18666 7.82001 4.18666 8.29709C4.18722 8.6091 4.06503 8.90855 3.84695 9.12958C3.62888 9.3506 3.33279 9.47509 3.02383 9.47567ZM3.02383 7.33278C2.63704 7.33107 2.28742 7.56514 2.13841 7.92559C1.9894 8.28604 2.07044 8.70166 2.34363 8.97817C2.61683 9.25467 3.02822 9.33743 3.38549 9.18776C3.74275 9.03808 3.97532 8.68554 3.97447 8.29494C3.9733 7.76524 3.54837 7.33612 3.02383 7.33494V7.33278ZM38.1952 8.25637C38.0345 8.25642 37.8779 8.20545 37.7474 8.11066C37.494 7.92811 37.3747 7.60916 37.4454 7.30302C37.5161 6.99687 37.7627 6.76407 38.07 6.71352C38.2715 6.67884 38.4783 6.72834 38.6429 6.85066C38.9889 7.09618 39.0734 7.57799 38.8318 7.92852C38.7139 8.09625 38.5342 8.20901 38.3331 8.24137C38.2878 8.25143 38.2415 8.25646 38.1952 8.25637ZM37.8726 7.92852C38.1227 8.10747 38.4689 8.04837 38.6468 7.79638C38.8247 7.54439 38.7671 7.19454 38.5181 7.01421C38.269 6.83388 37.9224 6.89108 37.7432 7.14209C37.565 7.39562 37.6228 7.74682 37.8726 7.92852ZM42.386 7.94994C42.1833 7.95044 41.9856 7.88591 41.8216 7.76566C41.5043 7.53532 41.3554 7.13491 41.444 6.75061C41.5327 6.36632 41.8415 6.07358 42.2269 6.00851C42.4804 5.96473 42.7407 6.02658 42.9483 6.17994C43.2656 6.41028 43.4145 6.8107 43.3259 7.19499C43.2372 7.57928 42.9284 7.87203 42.543 7.93709C42.4913 7.94842 42.4388 7.95558 42.386 7.95852V7.94994ZM42.386 6.20994C42.3447 6.20925 42.3035 6.21284 42.2629 6.22066C42.0654 6.25198 41.8886 6.36246 41.7728 6.52709C41.6539 6.69203 41.6054 6.89819 41.6381 7.09952C41.6707 7.30085 41.7819 7.48057 41.9468 7.59852C42.1098 7.71881 42.3138 7.76816 42.5132 7.73554C42.7125 7.70293 42.8906 7.59108 43.0078 7.42494C43.1261 7.25981 43.1743 7.05381 43.1416 6.85265C43.1089 6.6515 42.9981 6.47183 42.8338 6.35352C42.7031 6.25994 42.5462 6.21112 42.386 6.21423V6.20994ZM23.4603 7.19994C22.8253 7.20255 22.2514 6.81814 22.0069 6.22635C21.7623 5.63456 21.8952 4.95222 22.3436 4.49815C22.7921 4.04409 23.4674 3.90795 24.0541 4.15335C24.6407 4.39875 25.023 4.97724 25.0221 5.61852C25.0238 6.03851 24.8602 6.44197 24.5673 6.74016C24.2744 7.03834 23.8762 7.20681 23.4603 7.20852V7.19994ZM23.4603 4.2492C22.9113 4.24663 22.415 4.57859 22.2031 5.09004C21.9912 5.6015 22.1056 6.1915 22.4929 6.58445C22.8802 6.9774 23.4639 7.09573 23.9714 6.88417C24.4788 6.67262 24.8099 6.17292 24.8099 5.61852C24.8053 4.86813 24.2034 4.26131 23.4603 4.2578V4.2492ZM6.20676 6.26352C5.5622 6.26352 5.03968 5.73585 5.03968 5.08494C5.03968 4.43404 5.5622 3.90637 6.20676 3.90637C6.85131 3.90637 7.37383 4.43404 7.37383 5.08494C7.37266 5.73536 6.85083 6.26234 6.20676 6.26352ZM6.20676 4.12066C5.67939 4.12066 5.25188 4.55238 5.25188 5.08494C5.25188 5.6175 5.67939 6.04923 6.20676 6.04923C6.73412 6.04923 7.16163 5.6175 7.16163 5.08494C7.16047 4.55287 6.73364 4.12184 6.20676 4.12066ZM35.3199 5.68923C35.173 5.68958 35.0297 5.64308 34.9104 5.55637C34.7065 5.40862 34.5961 5.16222 34.6208 4.90999C34.6456 4.65777 34.8017 4.43804 35.0304 4.33357C35.259 4.2291 35.5255 4.25576 35.7295 4.40351C36.0437 4.63255 36.1158 5.07489 35.8907 5.39352C35.7602 5.5809 35.5468 5.69147 35.3199 5.68923ZM35.3199 4.48494C35.2931 4.48282 35.2661 4.48282 35.2393 4.48494C35.1111 4.50576 34.9965 4.57752 34.921 4.68423C34.7639 4.90744 34.8151 5.2169 35.0356 5.37637C35.2554 5.53524 35.5611 5.48443 35.7189 5.2628C35.8752 5.03986 35.8251 4.73146 35.6064 4.57066C35.5218 4.51319 35.4218 4.48328 35.3199 4.48494ZM19.4796 5.46854C18.8978 5.47112 18.3719 5.11909 18.1476 4.57694C17.9234 4.03479 18.0451 3.40959 18.4559 2.99353C18.8667 2.57746 19.4854 2.45269 20.0229 2.67753C20.5605 2.90236 20.9106 3.43241 20.9098 4.01994C20.9098 4.8183 20.2701 5.46615 19.4796 5.46854ZM19.4796 2.78562C18.9838 2.78305 18.5354 3.08264 18.3439 3.54445C18.1523 4.00626 18.2555 4.53912 18.6052 4.89407C18.9548 5.24903 19.482 5.35599 19.9403 5.165C20.3986 4.97401 20.6976 4.52276 20.6976 4.02209C20.6976 3.34173 20.1533 2.7892 19.4796 2.78562ZM38.9548 4.8428C38.6415 4.84208 38.3549 4.66453 38.2123 4.38282C38.0697 4.10112 38.095 3.76254 38.2779 3.50566C38.4989 3.19583 38.8983 3.07436 39.252 3.20941C39.6057 3.34446 39.8256 3.70241 39.7883 4.08239C39.751 4.46236 39.4658 4.76977 39.0928 4.83209C39.047 4.83813 39.0009 4.841 38.9548 4.84066V4.8428ZM38.9548 3.36852C38.9209 3.36639 38.8869 3.36639 38.853 3.36852C38.6057 3.41177 38.4081 3.60048 38.3516 3.84744C38.2951 4.0944 38.3906 4.35151 38.5941 4.49994C38.7291 4.59584 38.8957 4.63502 39.0588 4.60923C39.3074 4.56786 39.5068 4.37902 39.5635 4.13107C39.6202 3.88313 39.5231 3.62513 39.3177 3.4778C39.2123 3.40263 39.0859 3.36357 38.9569 3.36637L38.9548 3.36852ZM10.3233 4.78923C9.6064 4.78805 9.02605 4.20038 9.02683 3.47637C9.02761 2.75237 9.60923 2.16598 10.3262 2.16637C11.0431 2.16677 11.6241 2.7538 11.6241 3.4778C11.6229 4.20243 11.0409 4.78923 10.3233 4.78923ZM10.3233 2.38066C9.7236 2.38184 9.23825 2.87357 9.23902 3.47923C9.23981 4.08488 9.72642 4.57533 10.3262 4.57494C10.9259 4.57455 11.4119 4.08346 11.4119 3.4778C11.4107 2.87152 10.9237 2.38066 10.3233 2.38066ZM14.9046 4.52352C14.1502 4.52233 13.5394 3.90396 13.5402 3.14209C13.541 2.38022 14.153 1.76312 14.9075 1.76352C15.6619 1.76391 16.2733 2.38164 16.2733 3.14351C16.2721 3.90601 15.6597 4.52352 14.9046 4.52352ZM14.9046 1.9778C14.2674 1.97898 13.7516 2.50141 13.7524 3.14494C13.7532 3.78847 14.2702 4.30962 14.9075 4.30923C15.5447 4.30883 16.0611 3.78704 16.0611 3.14351C16.0599 2.49936 15.5425 1.9778 14.9046 1.9778ZM32.0564 4.30923C31.9099 4.3085 31.7674 4.26127 31.6489 4.17423C31.4971 4.06493 31.3946 3.89896 31.3643 3.71311C31.3341 3.52727 31.3785 3.3369 31.4877 3.18423C31.5962 3.0318 31.7603 2.9292 31.9438 2.89905C32.1273 2.8689 32.3151 2.91368 32.4659 3.02351C32.6178 3.13281 32.7202 3.29878 32.7505 3.48463C32.7808 3.67048 32.7364 3.86084 32.6272 4.01351C32.5202 4.16668 32.3564 4.26951 32.1731 4.29851C32.1345 4.30518 32.0955 4.30876 32.0564 4.30923ZM31.772 4.00066C31.8776 4.07702 32.0086 4.10856 32.137 4.08851C32.2652 4.0677 32.3798 3.99594 32.4553 3.88923C32.6128 3.66658 32.5626 3.35722 32.3428 3.19709C32.2377 3.12 32.1065 3.08842 31.9783 3.10933C31.85 3.13025 31.7353 3.20194 31.6596 3.30851C31.502 3.53117 31.5523 3.84052 31.772 4.00066ZM28.5467 3.22709C28.3866 3.22742 28.2305 3.17639 28.101 3.08137C27.8454 2.90058 27.7235 2.58159 27.7926 2.27426C27.8617 1.96693 28.1081 1.73236 28.4159 1.68075C28.7238 1.62914 29.032 1.77076 29.1957 2.03906C29.3594 2.30736 29.3461 2.64902 29.162 2.90351C29.0468 3.06856 28.8711 3.18039 28.674 3.21423C28.6319 3.22174 28.5894 3.22604 28.5467 3.22709ZM28.222 2.9078C28.3833 3.02856 28.5966 3.05208 28.7799 2.96933C28.9633 2.88658 29.0882 2.71042 29.1067 2.50849C29.1252 2.30656 29.0344 2.11026 28.8692 1.99494C28.7503 1.90668 28.6009 1.8711 28.4554 1.89637C28.2329 1.93287 28.0543 2.10142 28.0031 2.32311C27.952 2.54479 28.0384 2.77573 28.222 2.9078ZM35.1077 2.72137C34.9471 2.72114 34.7905 2.67019 34.66 2.57566C34.3217 2.32494 34.2435 1.84729 34.4839 1.49994C34.6022 1.33173 34.7828 1.2189 34.9847 1.18709C35.4036 1.11726 35.7993 1.40364 35.8685 1.82673C35.9376 2.24982 35.654 2.6494 35.235 2.71923C35.1934 2.72306 35.1516 2.72377 35.1099 2.72137H35.1077ZM34.7831 2.39994C35.0324 2.58054 35.3792 2.52407 35.5597 2.27351C35.7392 2.02165 35.6843 1.67077 35.4366 1.48709C35.3142 1.3976 35.1608 1.36275 35.0122 1.39066C34.8684 1.41033 34.7384 1.48755 34.6515 1.60494C34.5653 1.72595 34.5302 1.87662 34.5541 2.02375C34.578 2.17088 34.6588 2.30237 34.7788 2.38923L34.7831 2.39994ZM30.5561 1.55351C30.3955 1.55357 30.2388 1.50259 30.1084 1.4078C29.7605 1.16056 29.6761 0.675793 29.9196 0.323515C30.1669 -0.0242938 30.6466 -0.103904 30.9911 0.145658C31.3365 0.395577 31.4163 0.880732 31.1694 1.22994C31.0511 1.39816 30.8705 1.51098 30.6686 1.5428C30.6314 1.54902 30.5938 1.5526 30.5561 1.55351ZM30.5561 0.214229C30.5258 0.21115 30.4952 0.21115 30.4649 0.214229C30.3212 0.234366 30.1914 0.31148 30.1042 0.428515C29.926 0.682044 29.9838 1.03325 30.2336 1.21494C30.3533 1.30155 30.5022 1.33627 30.6474 1.31137C30.7912 1.2917 30.9212 1.21448 31.0081 1.09709C31.0949 0.976276 31.1303 0.825434 31.1064 0.678134C31.0825 0.530833 31.0013 0.399297 30.8808 0.312801C30.7857 0.245946 30.672 0.21142 30.5561 0.214229Z" fill="#B6B7BB"/>
</svg>
