<svg width="24" height="24" viewBox="0 0 24 24" fill="none" xmlns="http://www.w3.org/2000/svg">
<g clip-path="url(#clip0_1249_17072)">
<path d="M21.0844 6.96343C21.0993 7.17217 21.0993 7.38096 21.0993 7.58971C21.0993 13.9567 16.2532 21.2931 7.39594 21.2931C4.66718 21.2931 2.1323 20.5027 0 19.131C0.387704 19.1757 0.760445 19.1906 1.16307 19.1906C3.41461 19.1906 5.4873 18.4301 7.14244 17.1329C5.02505 17.0881 3.25062 15.7014 2.63925 13.7927C2.9375 13.8375 3.2357 13.8673 3.54887 13.8673C3.98128 13.8673 4.41373 13.8076 4.81631 13.7033C2.60946 13.2559 0.954274 11.3175 0.954274 8.97644V8.91682C1.59543 9.27469 2.34105 9.49835 3.13128 9.52814C1.83401 8.66327 0.984108 7.18709 0.984108 5.51703C0.984108 4.62238 1.22264 3.80226 1.64018 3.08652C4.01106 6.00911 7.57485 7.9177 11.571 8.12649C11.4965 7.76862 11.4517 7.39588 11.4517 7.02309C11.4517 4.36888 13.5989 2.20679 16.268 2.20679C17.6547 2.20679 18.9073 2.78832 19.787 3.72772C20.8755 3.51898 21.9193 3.11636 22.8438 2.56466C22.4859 3.68302 21.7255 4.62242 20.7264 5.21883C21.6957 5.1145 22.6351 4.84604 23.4999 4.4733C22.8439 5.42757 22.0238 6.27747 21.0844 6.96343Z" fill="white"/>
</g>
<defs>
<clipPath id="clip0_1249_17072">
<rect width="23.5" height="23.5" fill="white"/>
</clipPath>
</defs>
</svg>
