<svg width="98" height="104" viewBox="0 0 98 104" fill="none" xmlns="http://www.w3.org/2000/svg">
<g filter="url(#filter0_d_964_14168)">
<circle cx="49" cy="45" r="45" fill="#5B72EE"/>
</g>
<path d="M50.4874 45C52.9726 45 54.9874 47.0147 54.9874 49.5L54.985 51.7451C55.2936 57.2548 51.05 60.0024 43.1806 60.0024C35.3366 60.0024 31 57.2907 31 51.8237V49.5C31 47.0147 33.0147 45 35.5 45H50.4874ZM62.4892 45C64.9744 45 66.9892 47.0147 66.9892 49.5L66.9869 51.0797C67.2582 56.0221 63.5085 58.5 56.6548 58.5C55.7244 58.5 54.8498 58.4547 54.033 58.364C55.6431 56.8771 56.5044 54.8594 56.5015 52.3097L56.4827 51.6612L56.4874 49.5C56.4874 47.7073 55.7011 46.0982 54.4547 44.9988L62.4892 45ZM43 27C47.1428 27 50.5012 30.3584 50.5012 34.5012C50.5012 38.644 47.1428 42.0024 43 42.0024C38.8572 42.0024 35.4988 38.644 35.4988 34.5012C35.4988 30.3584 38.8572 27 43 27ZM58 30C61.3137 30 64 32.6863 64 36C64 39.3137 61.3137 42 58 42C54.6863 42 52 39.3137 52 36C52 32.6863 54.6863 30 58 30Z" fill="white"/>
<defs>
<filter id="filter0_d_964_14168" x="0" y="0" width="98" height="104" filterUnits="userSpaceOnUse" color-interpolation-filters="sRGB">
<feFlood flood-opacity="0" result="BackgroundImageFix"/>
<feColorMatrix in="SourceAlpha" type="matrix" values="0 0 0 0 0 0 0 0 0 0 0 0 0 0 0 0 0 0 127 0" result="hardAlpha"/>
<feOffset dy="10"/>
<feGaussianBlur stdDeviation="2"/>
<feColorMatrix type="matrix" values="0 0 0 0 0 0 0 0 0 0 0 0 0 0 0 0 0 0 0.05 0"/>
<feBlend mode="normal" in2="BackgroundImageFix" result="effect1_dropShadow_964_14168"/>
<feBlend mode="normal" in="SourceGraphic" in2="effect1_dropShadow_964_14168" result="shape"/>
</filter>
</defs>
</svg>
