<svg width="64" height="64" viewBox="0 0 64 64" fill="none" xmlns="http://www.w3.org/2000/svg">
<path d="M32 6C17.6405 6 6 17.6406 6 32C6 46.3594 17.6405 58 32 58C46.3594 58 58 46.3594 58 32C58 17.6406 46.3594 6 32 6ZM29.3064 54.1249C24.3734 53.5341 19.8091 51.3259 16.2415 47.7584C12.0323 43.5491 9.71425 37.9528 9.71425 32C9.71425 26.6413 11.5938 21.572 15.0394 17.5426C15.1281 18.6073 15.3472 19.7486 15.2911 20.5645C15.0861 23.5389 14.7926 25.4004 16.5336 27.9097C17.2119 28.8871 17.3785 30.2882 17.7086 31.4195C18.0315 32.5263 19.3214 33.1067 20.211 33.7886C22.0059 35.1647 23.723 36.7643 25.6262 37.9754C26.8824 38.7747 27.667 39.1724 27.2991 40.7052C27.0033 41.938 26.9206 42.6974 26.2829 43.7956C26.0882 44.1307 27.0175 46.2854 27.3267 46.5946C28.264 47.5317 29.194 48.3915 30.2156 49.2352C31.7995 50.5439 30.0618 52.2442 29.3064 54.1249ZM47.7584 47.7584C44.5542 50.9625 40.546 53.0691 36.1889 53.8935C36.8064 52.3665 37.9059 51.0098 38.9258 50.2233C39.8129 49.5387 40.924 48.2221 41.3874 47.1792C41.8504 46.1377 42.4637 45.2349 43.0845 44.2771C43.9676 42.9148 40.9071 40.8601 39.9154 40.4295C37.6836 39.4606 36.0036 38.1533 34.0202 36.7576C32.6071 35.7634 29.7381 37.2769 28.1427 36.5805C25.9576 35.6264 24.1574 33.9685 22.258 32.5381C20.298 31.062 20.3927 29.3411 20.3927 27.1635C21.928 27.2201 24.112 26.7386 25.1313 27.9732C25.4529 28.3629 26.5588 30.1035 27.299 29.485C27.9037 28.9796 26.8509 26.9539 26.6475 26.4776C26.0219 25.0133 28.073 24.4421 29.1229 23.4491C30.4929 22.1536 33.4316 20.1219 33.1994 19.1933C32.9671 18.2646 30.2589 15.6336 28.6682 16.0441C28.4299 16.1056 26.3311 18.3063 25.9256 18.6515C25.9364 17.9333 25.9471 17.2151 25.9581 16.4969C25.965 16.0434 25.1121 15.5779 25.1518 15.2854C25.2518 14.5461 27.3095 13.2045 27.8214 12.6158C27.4627 12.3916 26.239 11.3405 25.8686 11.4948C24.9719 11.8685 23.9591 12.126 23.0624 12.4996C23.0624 12.1886 23.0246 11.8965 22.9796 11.608C24.7855 10.8091 26.6904 10.2562 28.6434 9.964L30.4039 10.6715L31.6469 12.1466L32.8874 13.4257L33.9717 13.7751L35.6941 12.1508L35.25 10.9911V9.94875C38.6562 10.4435 41.873 11.7143 44.6903 13.6737C44.1862 13.7189 43.6324 13.793 43.0075 13.8725C42.7494 13.72 42.4183 13.6508 42.1369 13.5446C42.9533 15.2999 43.8048 17.0309 44.6699 18.7629C45.594 20.613 47.644 22.5975 48.004 24.5505C48.4283 26.8525 48.1339 28.9435 48.366 31.6519C48.5895 34.26 51.3065 37.2234 51.3065 37.2234C51.3065 37.2234 52.5611 37.6508 53.6045 37.5019C52.6319 41.3498 50.6379 44.8786 47.7584 47.7584Z" fill="#031B4E"/>
</svg>
