<svg width="170" height="85" viewBox="0 0 170 85" fill="none" xmlns="http://www.w3.org/2000/svg">
<path d="M10.6289 24.6782H46.2722V60.3216H10.6289V24.6782Z" fill="#F26625"/>
<path d="M27.2636 44.8757L21.0869 33.3512H23.9387L27.503 40.5988C27.503 40.7178 27.622 40.8368 27.741 40.9558C27.86 41.0748 27.86 41.1938 27.979 41.4304L28.098 41.5494V41.6684C28.217 41.9064 28.217 42.0254 28.336 42.2634C28.455 42.3824 28.455 42.6204 28.574 42.738C28.693 42.381 28.931 42.143 29.0486 41.6684C29.1676 41.3114 29.4056 40.9558 29.6436 40.5988L33.2079 33.3512H35.8217L29.645 44.9961V52.3628H27.2692L27.2636 44.8757Z" fill="white"/>
<path d="M60.5408 37.2087C62.0425 37.2087 63.3458 37.6096 64.3488 38.4129L63.3472 39.617C62.4448 39.0164 61.5438 38.6155 60.443 38.6155C58.7388 38.6155 57.4369 39.5179 56.7356 41.2221C56.3347 42.2237 56.135 43.527 56.135 45.2313C56.135 46.5346 56.3333 47.6368 56.6365 48.4386C57.4383 50.3426 58.7416 51.2436 60.7448 51.2436C61.847 51.2436 62.85 50.9433 63.751 50.242L64.7525 51.5454C63.4492 52.3472 62.0609 52.7495 60.545 52.7495C58.7416 52.7495 57.2385 52.0483 56.0358 50.5452C54.8316 49.1285 54.3315 47.2387 54.3315 44.9352C54.3315 42.6317 54.9322 40.8269 56.135 39.3252C57.2371 38.0219 58.7416 37.22 60.545 37.22L60.5408 37.2087ZM66.2528 47.1296C66.2528 45.3262 66.6537 43.9223 67.5561 42.9221C68.4585 41.922 69.5607 41.3185 70.9632 41.3185C72.5669 41.3185 73.8674 41.9191 74.7712 43.2225C75.4725 44.224 75.7728 45.628 75.7728 47.3308C75.7728 49.3354 75.1721 50.939 74.0685 51.9406C73.2387 52.6696 72.1667 53.0626 71.0624 53.0428C69.5607 53.0428 68.4557 52.5413 67.5547 51.4391C66.6523 50.4375 66.2514 48.9345 66.2514 47.1296H66.2528ZM73.2681 44.2255C72.7666 43.323 72.064 42.8088 70.9632 42.8088C69.8625 42.8088 69.1598 43.2097 68.6583 44.013C68.2574 44.6136 68.1568 45.6166 68.1568 46.9171C68.1568 48.6214 68.3551 49.8213 68.858 50.5254C69.361 51.2295 70.0622 51.6275 71.0624 51.6275C72.2665 51.6275 73.067 51.0269 73.4679 49.9233C73.6662 49.3226 73.7682 48.5066 73.7682 47.5178C73.8674 46.0161 73.669 44.9111 73.2667 44.2113L73.2681 44.2255ZM78.9773 44.4238C78.9773 43.3216 78.8781 42.4192 78.5764 41.7321L80.2806 41.3312C80.581 41.8327 80.6815 42.4334 80.6815 42.9349V43.034C81.0825 42.6331 81.4834 42.2322 82.0982 41.9319C82.7995 41.531 83.4015 41.3312 84.0022 41.3312C84.9046 41.3312 85.7065 41.7321 86.2065 42.4334C86.3057 42.6317 86.5069 42.9349 86.6075 43.1346C87.8116 41.9305 88.9124 41.3312 90.1151 41.3312C90.917 41.3312 91.6168 41.6315 92.1197 42.133C92.6212 42.7337 92.9215 43.4364 92.9215 44.2382V52.554H91.0912V44.3374C91.0912 43.2352 90.5897 42.7337 89.6745 42.7337C89.173 42.7337 88.5724 42.932 88.0709 43.3344C87.8725 43.5327 87.4702 43.8359 86.9687 44.2368L86.7704 44.4351V52.5526H84.8664V44.7241C84.8664 44.0229 84.7672 43.52 84.566 43.3075C84.2657 43.0071 83.9654 42.9065 83.4639 42.9065C82.662 42.9065 81.7596 43.408 80.6589 44.4082V52.6249H78.9787L78.9773 44.4238ZM96.0155 36.8078L97.819 36.4069C98.0173 37.2087 98.1193 38.1111 98.1193 39.2119V42.9193C99.1209 41.9177 100.224 41.4176 101.327 41.4176C102.63 41.4176 103.732 41.9191 104.433 42.9193C105.235 43.9209 105.638 45.3248 105.638 47.0276C105.638 48.831 105.237 50.235 104.433 51.3371C103.63 52.4393 102.529 52.9408 101.226 52.9408C100.633 52.9519 100.047 52.814 99.5218 52.5399C98.9211 52.2395 98.5202 51.9392 98.2185 51.5383L97.9181 52.7425H96.2139C96.4122 52.241 96.5142 51.3258 96.5142 49.9375V39.4116C96.415 38.2075 96.3159 37.3065 96.0127 36.805L96.0155 36.8078ZM98.9197 43.6078C98.6194 43.8061 98.319 44.1093 98.1179 44.4096V50.15C98.8191 51.0524 99.7215 51.4533 100.81 51.4533C101.712 51.4533 102.413 51.153 102.814 50.4517C103.316 49.6499 103.616 48.5477 103.616 46.944C103.616 45.5274 103.418 44.5385 102.915 43.9379C102.514 43.3372 101.813 43.0355 100.81 43.0355C100.209 42.9363 99.5062 43.1346 98.9055 43.6361L98.9197 43.6078ZM108.241 38.2245C108.241 37.8235 108.341 37.5232 108.642 37.2229C108.944 36.9225 109.243 36.822 109.644 36.822C110.045 36.822 110.345 36.9211 110.645 37.2229C110.946 37.5246 111.046 37.8235 111.046 38.2245C111.046 38.6254 110.947 38.9257 110.645 39.226C110.344 39.5264 110.045 39.627 109.644 39.627C109.243 39.627 108.943 39.5278 108.642 39.226C108.342 38.9243 108.241 38.6254 108.241 38.2245ZM108.658 52.6433V41.6216L110.461 41.3213V52.6461L108.658 52.6433ZM114.356 44.4238C114.356 43.622 114.356 43.1205 114.257 42.9221C114.257 42.6218 114.058 42.3215 113.856 41.82L115.56 41.3185C115.834 41.844 115.972 42.43 115.961 43.0227C117.063 41.9205 118.266 41.3185 119.468 41.3185C120.069 41.3185 120.571 41.4176 121.072 41.7194C121.574 42.0211 121.975 42.4206 122.174 42.9235C122.373 43.3245 122.475 43.7254 122.475 44.2269V52.6447H120.77V45.1293C120.77 44.2269 120.671 43.6276 120.369 43.3259C120.213 43.1654 120.026 43.0382 119.819 42.952C119.613 42.8658 119.391 42.8224 119.167 42.8244C118.766 42.8244 118.165 43.0227 117.563 43.3259C117.006 43.6104 116.499 43.9825 116.06 44.428V52.6447H114.356V44.4238ZM126.482 44.0229L125.58 42.8187C127.082 41.8171 128.586 41.317 130.19 41.317C131.793 41.317 132.796 41.9177 133.297 43.0213C133.495 43.4222 133.495 44.0229 133.495 44.9253V45.526L133.396 49.1342V49.6357C133.396 50.2364 133.396 50.6373 133.495 50.939C133.594 51.34 133.896 51.6403 134.297 51.8415L133.394 53.0456C132.592 52.7453 132.091 52.2438 131.893 51.442C130.891 52.4435 129.787 52.9436 128.685 52.9436C127.583 52.9436 126.681 52.6433 125.994 52.0412C125.393 51.5397 125.091 50.7379 125.091 49.7363C125.065 49.1627 125.19 48.5922 125.454 48.0822C125.717 47.5722 126.111 47.1406 126.594 46.8307C127.596 46.1295 129.099 45.8291 130.904 45.8291H131.706V45.0273C131.706 44.1249 131.606 43.5256 131.305 43.323C131.115 43.1177 130.881 42.9573 130.622 42.8534C130.362 42.7495 130.082 42.7047 129.803 42.7224C129.202 42.7224 128.5 42.9207 127.698 43.2239L126.494 44.0257L126.482 44.0229ZM131.795 49.936L131.894 47.0319H130.992C129.388 47.0319 128.385 47.3322 127.784 47.9343C127.383 48.3352 127.184 48.9359 127.184 49.7377C127.184 51.041 127.784 51.7423 129.088 51.7423C129.657 51.7097 130.206 51.5253 130.68 51.2081C131.153 50.8909 131.533 50.4526 131.779 49.9389L131.795 49.936ZM139.21 41.6174H142.015L141.513 43.034H139.208V50.15C139.208 50.7506 139.307 51.1515 139.509 51.4533C139.707 51.6516 140.109 51.8542 140.611 51.8542C141.012 51.8542 141.413 51.755 141.713 51.6559L141.911 52.758C141.311 53.0584 140.707 53.159 140.007 53.159C138.303 53.159 137.503 52.3571 137.503 50.6543V43.0383H136V41.6216H137.416V41.4233C137.416 41.225 137.515 40.4217 137.615 39.1184V38.8166L139.418 38.4157C139.22 39.6199 139.22 40.7206 139.22 41.623L139.21 41.6174ZM143.82 47.1282C143.82 45.3248 144.22 43.9209 145.123 42.9207C145.925 41.9191 147.127 41.317 148.53 41.317C150.134 41.317 151.434 41.9177 152.338 43.221C153.039 44.2226 153.34 45.6265 153.34 47.3294C153.34 49.334 152.739 50.9376 151.635 51.9392C150.805 52.6682 149.733 53.0612 148.629 53.0414C147.127 53.0414 146.022 52.5399 145.121 51.4377C144.32 50.4361 143.818 48.933 143.818 47.1282H143.82ZM150.935 44.224C150.434 43.3216 149.731 42.8074 148.631 42.8074C147.53 42.8074 146.827 43.2083 146.326 44.0115C145.925 44.6122 145.824 45.6152 145.824 46.9157C145.824 48.62 146.022 49.8199 146.525 50.524C147.028 51.228 147.73 51.6261 148.73 51.6261C149.934 51.6261 150.734 51.0255 151.135 49.9219C151.334 49.3212 151.436 48.5052 151.436 47.5164C151.436 46.0147 151.237 44.9097 150.934 44.2099L150.935 44.224ZM156.645 44.2212C156.645 43.2196 156.545 42.4178 156.244 41.8157L157.948 41.3142C158.222 41.8398 158.36 42.4258 158.349 43.0185V43.2168C159.251 42.0126 160.253 41.4134 161.456 41.4134C161.654 41.4134 161.857 41.4134 162.056 41.5125L161.355 43.4165C161.157 43.3174 160.954 43.3174 160.854 43.3174C160.453 43.3174 159.951 43.4165 159.55 43.7183C159.149 44.02 158.748 44.319 158.549 44.7199C158.417 45.1072 158.349 45.5135 158.349 45.9226V52.836H156.645V44.2212Z" fill="#F26625"/>
</svg>
